<svg width="396" height="80" viewBox="0 0 396 80" fill="none" xmlns="http://www.w3.org/2000/svg">
<path d="M340.955 62.0126H395.883V78.0622H340.955V62.0126Z" fill="#FF4D4F"/>
<path d="M340.955 41.9505H395.883V58.0002H340.955V41.9505Z" fill="#00A3E0"/>
<path d="M337.389 22.6408L390.05 12.2562L393.772 27.9117L341.111 38.2963L337.389 22.6408Z" fill="#FFA940"/>
<path d="M322.975 67.0405C325.657 67.0405 328.876 66.4538 332.631 65.2803V76.6968C328.809 78.4067 324.115 79.2617 318.549 79.2617C312.413 79.2617 307.937 77.7194 305.121 74.6348C302.338 71.5166 300.946 66.8561 300.946 60.6533V33.5454H293.604V27.0576L302.053 21.9277L306.479 10.0586H316.286V22.0283H332.027V33.5454H316.286V60.6533C316.286 62.8327 316.889 64.4421 318.096 65.4814C319.337 66.5208 320.963 67.0405 322.975 67.0405Z" fill="black"/>
<path d="M274.359 7.49365C274.359 2.49788 277.142 0 282.708 0C288.274 0 291.057 2.49788 291.057 7.49365C291.057 9.87419 290.353 11.735 288.944 13.0762C287.57 14.3838 285.491 15.0376 282.708 15.0376C277.142 15.0376 274.359 12.5229 274.359 7.49365ZM290.353 78.2559H275.013V22.0283H290.353V78.2559Z" fill="black"/>
<path d="M254.36 78.2559L252.298 71.064H251.494C249.851 73.6792 247.521 75.7077 244.503 77.1494C241.485 78.5576 238.049 79.2617 234.193 79.2617C227.588 79.2617 222.609 77.5015 219.256 73.981C215.903 70.4269 214.227 65.3306 214.227 58.6919V22.0283H229.566V54.8696C229.566 58.9266 230.287 61.9777 231.729 64.0229C233.17 66.0347 235.467 67.0405 238.619 67.0405C242.91 67.0405 246.012 65.6156 247.923 62.7656C249.834 59.8822 250.79 55.1211 250.79 48.4824V22.0283H266.129V78.2559H254.36Z" fill="black"/>
<path d="M209.618 57.8369C209.618 64.4756 207.22 69.7061 202.426 73.5283C197.665 77.3506 191.026 79.2617 182.51 79.2617C174.664 79.2617 167.724 77.7865 161.688 74.8359V60.3516C166.651 62.5645 170.842 64.1235 174.262 65.0288C177.715 65.9341 180.867 66.3867 183.717 66.3867C187.137 66.3867 189.752 65.7329 191.562 64.4253C193.407 63.1177 194.329 61.173 194.329 58.5913C194.329 57.1496 193.926 55.8755 193.122 54.769C192.317 53.6291 191.127 52.5394 189.551 51.5C188.008 50.4606 184.84 48.8009 180.045 46.521C175.553 44.4087 172.183 42.3802 169.937 40.4355C167.69 38.4909 165.896 36.2277 164.555 33.646C163.214 31.0643 162.543 28.0467 162.543 24.5933C162.543 18.0887 164.74 12.9756 169.132 9.25391C173.558 5.53223 179.66 3.67139 187.438 3.67139C191.261 3.67139 194.899 4.12402 198.352 5.0293C201.839 5.93457 205.477 7.20866 209.266 8.85156L204.236 20.9722C200.313 19.3628 197.061 18.2396 194.479 17.6025C191.931 16.9655 189.417 16.647 186.936 16.647C183.985 16.647 181.722 17.3343 180.146 18.709C178.57 20.0837 177.782 21.8774 177.782 24.0903C177.782 25.465 178.101 26.672 178.738 27.7114C179.375 28.7173 180.381 29.7064 181.755 30.6787C183.164 31.6175 186.466 33.3275 191.663 35.8086C198.536 39.0944 203.247 42.397 205.795 45.7163C208.344 49.0021 209.618 53.0423 209.618 57.8369Z" fill="black"/>
<path d="M158.035 78.2559H115.688V4.72754H158.035V17.502H131.279V33.646H156.174V46.4204H131.279V65.3809H158.035V78.2559Z" fill="black"/>
<path d="M70.4932 37.3677H75.5225C80.4512 37.3677 84.089 36.5462 86.436 34.9033C88.783 33.2604 89.9565 30.6787 89.9565 27.1582C89.9565 23.6712 88.7495 21.1901 86.3354 19.7148C83.9549 18.2396 80.25 17.502 75.2207 17.502H70.4932V37.3677ZM70.4932 50.0415V78.2559H54.9023V4.72754H76.3271C86.3187 4.72754 93.7118 6.55485 98.5063 10.2095C103.301 13.8306 105.698 19.346 105.698 26.7559C105.698 31.0811 104.508 34.9368 102.127 38.3232C99.7469 41.6761 96.3773 44.3081 92.0186 46.2192C103.083 62.7489 110.292 73.4277 113.645 78.2559H96.3438L78.7915 50.0415H70.4932Z" fill="black"/>
<path d="M48.7847 57.8369C48.7847 64.4756 46.3874 69.7061 41.5928 73.5283C36.8317 77.3506 30.193 79.2617 21.6768 79.2617C13.8311 79.2617 6.89062 77.7865 0.855469 74.8359V60.3516C5.81771 62.5645 10.0088 64.1235 13.4287 65.0288C16.8822 65.9341 20.0339 66.3867 22.8838 66.3867C26.3037 66.3867 28.9189 65.7329 30.7295 64.4253C32.5736 63.1177 33.4956 61.173 33.4956 58.5913C33.4956 57.1496 33.0933 55.8755 32.2886 54.769C31.4839 53.6291 30.2936 52.5394 28.7178 51.5C27.1755 50.4606 24.007 48.8009 19.2124 46.521C14.7196 44.4087 11.3499 42.3802 9.10352 40.4355C6.8571 38.4909 5.06331 36.2277 3.72217 33.646C2.38102 31.0643 1.71045 28.0467 1.71045 24.5933C1.71045 18.0887 3.90658 12.9756 8.29883 9.25391C12.7246 5.53223 18.8268 3.67139 26.6055 3.67139C30.4277 3.67139 34.0656 4.12402 37.519 5.0293C41.006 5.93457 44.6439 7.20866 48.4326 8.85156L43.4033 20.9722C39.4805 19.3628 36.2282 18.2396 33.6465 17.6025C31.0983 16.9655 28.5837 16.647 26.1025 16.647C23.152 16.647 20.8888 17.3343 19.313 18.709C17.7371 20.0837 16.9492 21.8774 16.9492 24.0903C16.9492 25.465 17.2677 26.672 17.9048 27.7114C18.5418 28.7173 19.5477 29.7064 20.9224 30.6787C22.3306 31.6175 25.6331 33.3275 30.8301 35.8086C37.7034 39.0944 42.4142 42.397 44.9624 45.7163C47.5106 49.0021 48.7847 53.0423 48.7847 57.8369Z" fill="black"/>
</svg>
