<svg width="24" height="24" viewBox="0 0 24 24" fill="none" xmlns="http://www.w3.org/2000/svg">
<g id="Appstore">
<path id="Vector" d="M10.7145 2.14453H2.57164C2.33592 2.14453 2.14307 2.33739 2.14307 2.5731V10.716C2.14307 10.9517 2.33592 11.1445 2.57164 11.1445H10.7145C10.9502 11.1445 11.1431 10.9517 11.1431 10.716V2.5731C11.1431 2.33739 10.9502 2.14453 10.7145 2.14453ZM9.32164 9.3231H3.9645V3.96596H9.32164V9.3231ZM21.4288 2.14453H13.2859C13.0502 2.14453 12.8574 2.33739 12.8574 2.5731V10.716C12.8574 10.9517 13.0502 11.1445 13.2859 11.1445H21.4288C21.6645 11.1445 21.8574 10.9517 21.8574 10.716V2.5731C21.8574 2.33739 21.6645 2.14453 21.4288 2.14453ZM20.0359 9.3231H14.6788V3.96596H20.0359V9.3231ZM10.7145 12.8588H2.57164C2.33592 12.8588 2.14307 13.0517 2.14307 13.2874V21.4302C2.14307 21.666 2.33592 21.8588 2.57164 21.8588H10.7145C10.9502 21.8588 11.1431 21.666 11.1431 21.4302V13.2874C11.1431 13.0517 10.9502 12.8588 10.7145 12.8588ZM9.32164 20.0374H3.9645V14.6802H9.32164V20.0374ZM21.4288 12.8588H13.2859C13.0502 12.8588 12.8574 13.0517 12.8574 13.2874V21.4302C12.8574 21.666 13.0502 21.8588 13.2859 21.8588H21.4288C21.6645 21.8588 21.8574 21.666 21.8574 21.4302V13.2874C21.8574 13.0517 21.6645 12.8588 21.4288 12.8588ZM20.0359 20.0374H14.6788V14.6802H20.0359V20.0374Z"/>
</g>
</svg>
