<svg width="28" height="32" viewBox="0 0 28 32" fill="none" xmlns="http://www.w3.org/2000/svg">
<path fill-rule="evenodd" clip-rule="evenodd" d="M27.9999 8L14.1435 0L0.287109 8V24L14.1435 32L27.9999 24V8Z" fill="url(#paint0_linear_3253_17964)"/>
<path d="M8.64619 21.5733L7.14334 22.3448L8.07929 20.9471C9.80898 18.3643 10.7939 15.3575 10.9248 12.2523L10.9955 10.5726L11.7522 12.0816C13.1511 14.8713 15.2899 17.2326 17.9368 18.9118L19.3688 19.82L17.6762 19.7087C14.5465 19.5031 11.4239 20.1472 8.64607 21.5721L8.64619 21.5733Z" fill="white"/>
<path d="M20.6167 9.32816L21.1248 8.66161L21.068 9.49707C20.9293 11.5313 21.2775 13.5721 22.0836 15.4539L22.4142 16.2261L21.7128 15.7561C20.0052 14.6105 18.0494 13.8799 16.0064 13.6221L15.1677 13.5165L15.9259 13.151C17.7732 12.2616 19.3799 10.9522 20.6158 9.32893L20.6167 9.32816Z" fill="white"/>
<defs>
<linearGradient id="paint0_linear_3253_17964" x1="15.8756" y1="38.8" x2="23.9335" y2="-5.18343" gradientUnits="userSpaceOnUse">
<stop stop-color="#C012FC"/>
<stop offset="1" stop-color="#0FF2E7"/>
</linearGradient>
</defs>
</svg>
