<svg width="20" height="22" viewBox="0 0 20 22" fill="none" xmlns="http://www.w3.org/2000/svg">
<path d="M19 17.5006H12.82C12.6707 17.0812 12.4299 16.7003 12.1151 16.3855C11.8003 16.0707 11.4194 15.8299 11 15.6806V12.5006H14.17C15.2289 12.5354 16.2637 12.1808 17.0787 11.5039C17.8937 10.827 18.4323 9.87479 18.5924 8.82755C18.7526 7.78029 18.5233 6.71066 17.9478 5.82112C17.3724 4.93158 16.4909 4.28387 15.47 4.00059C14.9352 2.81566 14.0301 1.83648 12.8907 1.2104C11.7514 0.584319 10.4396 0.345212 9.15264 0.529061C7.86569 0.71291 6.67327 1.30977 5.75483 2.22982C4.83639 3.14986 4.24161 4.34332 4.06 5.63059C3.24619 5.8588 2.54245 6.37379 2.07876 7.08044C1.61507 7.78709 1.42276 8.63766 1.53734 9.47506C1.65192 10.3125 2.06565 11.0801 2.70212 11.6362C3.33859 12.1924 4.1548 12.4994 5 12.5006H9V15.6806C8.5806 15.8299 8.19969 16.0707 7.8849 16.3855C7.57011 16.7003 7.32932 17.0812 7.18 17.5006H1C0.734784 17.5006 0.48043 17.6059 0.292893 17.7935C0.105357 17.981 0 18.2354 0 18.5006C0 18.7658 0.105357 19.0202 0.292893 19.2077C0.48043 19.3952 0.734784 19.5006 1 19.5006H7.18C7.3902 20.0797 7.77363 20.5801 8.27816 20.9337C8.7827 21.2874 9.38388 21.4771 10 21.4771C10.6161 21.4771 11.2173 21.2874 11.7218 20.9337C12.2264 20.5801 12.6098 20.0797 12.82 19.5006H19C19.2652 19.5006 19.5196 19.3952 19.7071 19.2077C19.8946 19.0202 20 18.7658 20 18.5006C20 18.2354 19.8946 17.981 19.7071 17.7935C19.5196 17.6059 19.2652 17.5006 19 17.5006ZM5 10.5006C4.60218 10.5006 4.22064 10.3426 3.93934 10.0612C3.65804 9.77994 3.5 9.39841 3.5 9.00059C3.5 8.60276 3.65804 8.22123 3.93934 7.93993C4.22064 7.65862 4.60218 7.50059 5 7.50059C5.26522 7.50059 5.51957 7.39523 5.70711 7.20769C5.89464 7.02016 6 6.7658 6 6.50059C5.99738 5.55112 6.33259 4.63168 6.94569 3.90668C7.55878 3.18169 8.40978 2.69842 9.3465 2.54331C10.2832 2.38819 11.2446 2.57134 12.0586 3.05999C12.8727 3.54865 13.4864 4.31096 13.79 5.21059C13.8472 5.38243 13.9499 5.53552 14.0873 5.65352C14.2247 5.77152 14.3915 5.85 14.57 5.88059C15.1113 5.97085 15.6027 6.25085 15.9564 6.67046C16.31 7.09006 16.5027 7.62185 16.5 8.17059C16.4974 8.78773 16.251 9.37885 15.8147 9.81524C15.3783 10.2516 14.7871 10.498 14.17 10.5006H5ZM10 19.5006C9.80222 19.5006 9.60888 19.4419 9.44443 19.3321C9.27998 19.2222 9.15181 19.066 9.07612 18.8833C9.00043 18.7005 8.98063 18.4995 9.01921 18.3055C9.0578 18.1115 9.15304 17.9333 9.29289 17.7935C9.43275 17.6536 9.61093 17.5584 9.80491 17.5198C9.99889 17.4812 10.2 17.501 10.3827 17.5767C10.5654 17.6524 10.7216 17.7806 10.8315 17.945C10.9414 18.1095 11 18.3028 11 18.5006C11 18.7658 10.8946 19.0202 10.7071 19.2077C10.5196 19.3952 10.2652 19.5006 10 19.5006Z"/>
</svg>
