<svg width="20" height="20" viewBox="0 0 20 20" fill="none" xmlns="http://www.w3.org/2000/svg">
<g id="Group 1000003769">
<path id="Vector" d="M10.5753 6.20355C10.3999 6.37913 10.3014 6.61713 10.3014 6.86528C10.3014 7.11344 10.3999 7.35144 10.5753 7.52702L12.4106 9.3624L10.5753 11.1978C10.4832 11.2835 10.4095 11.3869 10.3583 11.5018C10.3071 11.6166 10.2796 11.7406 10.2774 11.8664C10.2751 11.9921 10.2983 12.117 10.3454 12.2336C10.3925 12.3502 10.4626 12.4561 10.5515 12.545C10.6404 12.6339 10.7463 12.704 10.8629 12.7511C10.9795 12.7982 11.1044 12.8214 11.2301 12.8192C11.3559 12.8169 11.4799 12.7894 11.5947 12.7382C11.7096 12.6871 11.813 12.6133 11.8987 12.5213L14.3958 10.0241C14.5712 9.84856 14.6697 9.61055 14.6697 9.3624C14.6697 9.11425 14.5712 8.87624 14.3958 8.70067L11.8987 6.20355C11.7231 6.02819 11.4851 5.92969 11.237 5.92969C10.9888 5.92969 10.7508 6.02819 10.5753 6.20355ZM8.15304 7.52702C8.31845 7.34951 8.4085 7.11472 8.40422 6.87212C8.39994 6.62953 8.30167 6.39806 8.1301 6.22649C7.95853 6.05492 7.72707 5.95665 7.48447 5.95237C7.24187 5.94809 7.00709 6.03814 6.82957 6.20355L4.33245 8.70067C4.15709 8.87624 4.05859 9.11425 4.05859 9.3624C4.05859 9.61055 4.15709 9.84856 4.33245 10.0241L6.82957 12.5213C6.9153 12.6133 7.01868 12.6871 7.13355 12.7382C7.24841 12.7894 7.37241 12.8169 7.49815 12.8192C7.62388 12.8214 7.74877 12.7982 7.86537 12.7511C7.98197 12.704 8.08789 12.6339 8.17682 12.545C8.26574 12.4561 8.33584 12.3502 8.38293 12.2336C8.43003 12.117 8.45316 11.9921 8.45094 11.8664C8.44872 11.7406 8.4212 11.6166 8.37002 11.5018C8.31884 11.3869 8.24505 11.2835 8.15304 11.1978L6.31766 9.3624L8.15304 7.52702Z" />
<path id="Vector_2" fill-rule="evenodd" clip-rule="evenodd" d="M15.2908 16.6143C13.4308 18.1348 11.0575 18.8822 8.66181 18.702C6.26614 18.5218 4.03138 17.4277 2.41972 15.6461C0.808066 13.8645 -0.0571821 11.5316 0.00293537 9.12987C0.0630529 6.72819 1.04394 4.44149 2.74271 2.74271C4.44149 1.04394 6.72819 0.0630529 9.12987 0.00293537C11.5316 -0.0571821 13.8645 0.808066 15.6461 2.41972C17.4277 4.03138 18.5218 6.26614 18.702 8.66181C18.8822 11.0575 18.1348 13.4308 16.6143 15.2908L19.7032 18.3785C19.7952 18.4642 19.869 18.5676 19.9202 18.6825C19.9714 18.7973 19.9989 18.9213 20.0011 19.0471C20.0033 19.1728 19.9802 19.2977 19.9331 19.4143C19.886 19.5309 19.8159 19.6368 19.727 19.7257C19.6381 19.8146 19.5321 19.8848 19.4155 19.9318C19.2989 19.9789 19.174 20.0021 19.0483 19.9999C18.9226 19.9976 18.7986 19.9701 18.6837 19.9189C18.5688 19.8678 18.4655 19.794 18.3797 19.702L15.2908 16.6143ZM1.87378 9.36389C1.87373 8.14281 2.17216 6.94023 2.7431 5.86084C3.31403 4.78146 4.14016 3.858 5.14956 3.17087C6.15896 2.48374 7.32102 2.05377 8.53457 1.91838C9.74812 1.783 10.9764 1.94632 12.1124 2.39412C13.2484 2.84192 14.2577 3.56061 15.0525 4.48764C15.8472 5.41467 16.4034 6.52192 16.6724 7.71299C16.9414 8.90407 16.9152 10.1428 16.5961 11.3215C16.277 12.5001 15.6746 13.5829 14.8413 14.4755C14.6879 14.5608 14.5616 14.6876 14.4767 14.8413C13.4096 15.8374 12.0747 16.4999 10.6361 16.7476C9.1975 16.9952 7.71789 16.8172 6.37911 16.2353C5.04032 15.6535 3.9007 14.6932 3.1003 13.4724C2.2999 12.2517 1.8736 10.8236 1.87378 9.36389Z" />
</g>
</svg>
