<svg width="24" height="24" viewBox="0 0 24 24" fill="none" xmlns="http://www.w3.org/2000/svg">
<path fill-rule="evenodd" clip-rule="evenodd" d="M14.9859 1.72031L20.0297 6.76406C20.1703 6.90469 20.25 7.09687 20.25 7.29609V13.5168C19.7512 13.0831 19.1823 12.728 18.5625 12.4707V9.23438H13.5C13.2389 9.23438 12.9885 9.13066 12.8039 8.94606C12.6193 8.76145 12.5156 8.51107 12.5156 8.25V3.1875H5.4375V20.8125H10.5811C10.8746 21.4394 11.2702 22.009 11.7464 22.5H4.5C4.08516 22.5 3.75 22.1648 3.75 21.75V2.25C3.75 1.83516 4.08516 1.5 4.5 1.5H14.4562C14.6555 1.5 14.8453 1.57969 14.9859 1.72031ZM14.1094 7.64062H18.5203L14.1094 3.22969V7.64062Z" fill="#007CB0"/>
<path d="M15.5255 16.4652C15.2063 16.4652 14.9074 16.5887 14.6811 16.8144C14.4558 17.04 14.3309 17.3381 14.3309 17.6563C14.3309 17.9746 14.4558 18.2726 14.6811 18.4983C14.9074 18.7229 15.2063 18.8474 15.5255 18.8474C15.8448 18.8474 16.1437 18.7229 16.37 18.4983C16.5953 18.2726 16.7202 17.9746 16.7202 17.6563C16.7202 17.3381 16.5953 17.04 16.37 16.8144C16.2595 16.7033 16.1279 16.6152 15.9829 16.5553C15.838 16.4954 15.6825 16.4648 15.5255 16.4652ZM19.9273 18.972L19.2291 18.3769C19.2622 18.1747 19.2793 17.9682 19.2793 17.7628C19.2793 17.5573 19.2622 17.3498 19.2291 17.1486L19.9273 16.5536C19.9801 16.5086 20.0178 16.4486 20.0356 16.3817C20.0533 16.3147 20.0502 16.244 20.0266 16.1789L20.017 16.1512C19.8249 15.6155 19.5369 15.1189 19.1672 14.6855L19.148 14.6632C19.1031 14.6105 19.0432 14.5727 18.9763 14.5546C18.9095 14.5366 18.8386 14.5392 18.7732 14.562L17.9063 14.8697C17.5861 14.6078 17.2295 14.4013 16.843 14.2576L16.6754 13.3539C16.6627 13.2858 16.6296 13.2232 16.5804 13.1744C16.5312 13.1255 16.4683 13.0927 16.3999 13.0804L16.3711 13.075C15.8159 12.975 15.2309 12.975 14.6757 13.075L14.6469 13.0804C14.5786 13.0927 14.5156 13.1255 14.4664 13.1744C14.4172 13.2232 14.3841 13.2858 14.3714 13.3539L14.2028 14.2619C13.8199 14.4067 13.4633 14.6127 13.1469 14.8718L12.2736 14.562C12.2082 14.539 12.1373 14.5363 12.0704 14.5544C12.0035 14.5724 11.9436 14.6104 11.8988 14.6632L11.8796 14.6855C11.5105 15.1194 11.2227 15.6158 11.0298 16.1512L11.0202 16.1789C10.9721 16.312 11.0116 16.461 11.1195 16.5536L11.8262 17.155C11.7931 17.3551 11.7771 17.5595 11.7771 17.7617C11.7771 17.9661 11.7931 18.1704 11.8262 18.3684L11.1216 18.9698C11.0689 19.0148 11.0311 19.0748 11.0134 19.1417C10.9956 19.2087 10.9988 19.2794 11.0223 19.3445L11.0319 19.3722C11.2252 19.9076 11.5102 20.4025 11.8818 20.8379L11.901 20.8602C11.9459 20.9129 12.0057 20.9507 12.0726 20.9688C12.1395 20.9868 12.2103 20.9842 12.2757 20.9614L13.149 20.6516C13.4672 20.9124 13.8216 21.1189 14.2049 21.2615L14.3736 22.1695C14.3862 22.2376 14.4194 22.3002 14.4686 22.3491C14.5178 22.3979 14.5807 22.4307 14.649 22.443L14.6779 22.4484C15.2385 22.549 15.8126 22.549 16.3732 22.4484L16.4021 22.443C16.4704 22.4307 16.5333 22.3979 16.5825 22.3491C16.6317 22.3002 16.6649 22.2376 16.6775 22.1695L16.8451 21.2658C17.2316 21.121 17.5882 20.9156 17.9085 20.6537L18.7754 20.9614C18.8408 20.9844 18.9116 20.9871 18.9786 20.969C19.0455 20.951 19.1053 20.913 19.1501 20.8602L19.1693 20.8379C19.5409 20.4004 19.8259 19.9076 20.0192 19.3722L20.0288 19.3445C20.0747 19.2125 20.0352 19.0646 19.9273 18.972ZM15.5255 19.5276C14.4889 19.5276 13.6487 18.6899 13.6487 17.6563C13.6487 16.6228 14.4889 15.7851 15.5255 15.7851C16.5622 15.7851 17.4024 16.6228 17.4024 17.6563C17.4024 18.6899 16.5622 19.5276 15.5255 19.5276Z" fill="#007CB0"/>
</svg>
