<svg width="16" height="17" viewBox="0 0 16 17" fill="none" xmlns="http://www.w3.org/2000/svg">
<path d="M3.83333 3.4974V0.997396C3.83333 0.776382 3.92113 0.56442 4.07741 0.40814C4.23369 0.25186 4.44565 0.164063 4.66667 0.164062H14.6667C14.8877 0.164063 15.0996 0.25186 15.2559 0.40814C15.4122 0.56442 15.5 0.776382 15.5 0.997396V12.6641C15.5 12.8851 15.4122 13.097 15.2559 13.2533C15.0996 13.4096 14.8877 13.4974 14.6667 13.4974H12.1667V15.9974C12.1667 16.4574 11.7917 16.8307 11.3275 16.8307H1.33917C1.22927 16.8314 1.12033 16.8103 1.0186 16.7688C0.916873 16.7272 0.824361 16.6659 0.746382 16.5885C0.668403 16.511 0.606494 16.419 0.564212 16.3175C0.52193 16.2161 0.500108 16.1073 0.5 15.9974L0.5025 4.33073C0.5025 3.87073 0.8775 3.4974 1.34167 3.4974H3.83333ZM2.16917 5.16406L2.16667 15.1641H10.5V5.16406H2.16917ZM5.5 3.4974H12.1667V11.8307H13.8333V1.83073H5.5V3.4974Z" fill="#A7A8AA"/>
</svg>
