<svg width="24" height="24" viewBox="0 0 24 24" fill="none" xmlns="http://www.w3.org/2000/svg">
<g id="Genearal">
<path id="General" d="M21.4355 6.0862L12.8856 2.08625C12.764 2.02938 12.6324 2 12.4994 2C12.3664 2 12.2348 2.02938 12.1132 2.08625L3.56334 6.0862C3.54434 6.0952 3.53104 6.1102 3.51204 6.1212C3.48544 6.1352 3.45694 6.1442 3.43224 6.1612C3.41134 6.1762 3.39519 6.1952 3.37525 6.2112C3.3058 6.26552 3.2449 6.33099 3.19475 6.4052C3.17575 6.4332 3.1558 6.4582 3.1387 6.4862C3.11042 6.53905 3.08628 6.59423 3.0665 6.6512C3.05795 6.67819 3.04465 6.7032 3.03705 6.73019C3.01319 6.81802 3.00073 6.90885 3 7.00019V17.0001C3 17.3961 3.2204 17.7531 3.56429 17.9141L12.1142 21.914C12.2377 21.972 12.3688 22 12.4999 22C12.6321 21.9964 12.7622 21.9637 12.8818 21.904L12.8856 21.914L21.4355 17.9141C21.6035 17.8356 21.7463 17.7075 21.8465 17.5452C21.9466 17.383 21.9999 17.1936 21.9998 17.0001V7.00019C21.9999 6.80668 21.9466 6.6173 21.8465 6.45504C21.7463 6.29279 21.6035 6.16465 21.4355 6.0862ZM12.4999 4.09523L18.7109 7.00019L12.4999 9.90515L11.2573 9.32416L6.28981 7.00019L12.4999 4.09523ZM13.4499 19.461V11.6501L20.0998 8.53917V16.3511L13.4499 19.461Z"/>
</g>
</svg>
