<svg width="17" height="20" viewBox="0 0 17 20" fill="none" xmlns="http://www.w3.org/2000/svg">
<g id="Group 1000003767">
<path id="Vector (Stroke)" fill-rule="evenodd" clip-rule="evenodd" d="M2.72727 3.63654C2.48617 3.63654 2.25494 3.73232 2.08445 3.90281C1.91396 4.0733 1.81818 4.30453 1.81818 4.54563V17.2729C1.81818 17.514 1.91396 17.7452 2.08445 17.9157C2.25494 18.0862 2.48617 18.182 2.72727 18.182H13.6364C13.8775 18.182 14.1087 18.0862 14.2792 17.9157C14.4497 17.7452 14.5455 17.514 14.5455 17.2729V4.54563C14.5455 4.30453 14.4497 4.0733 14.2792 3.90281C14.1087 3.73232 13.8775 3.63654 13.6364 3.63654H11.8182C11.3161 3.63654 10.9091 3.22953 10.9091 2.72745C10.9091 2.22537 11.3161 1.81836 11.8182 1.81836H13.6364C14.3597 1.81836 15.0534 2.1057 15.5648 2.61716C16.0763 3.12862 16.3636 3.82231 16.3636 4.54563V17.2729C16.3636 17.9962 16.0763 18.6899 15.5648 19.2014C15.0534 19.7128 14.3597 20.0002 13.6364 20.0002H2.72727C2.00395 20.0002 1.31026 19.7128 0.7988 19.2014C0.287337 18.6899 0 17.9962 0 17.2729V4.54563C0 3.82231 0.287337 3.12862 0.7988 2.61716C1.31026 2.1057 2.00396 1.81836 2.72727 1.81836H4.54545C5.04753 1.81836 5.45455 2.22537 5.45455 2.72745C5.45455 3.22953 5.04753 3.63654 4.54545 3.63654H2.72727Z"/>
<path id="Vector (Stroke)_2" fill-rule="evenodd" clip-rule="evenodd" d="M3.63672 1.81818C3.63672 0.814028 4.45075 0 5.4549 0H10.9094C11.9136 0 12.7276 0.814028 12.7276 1.81818V3.63636C12.7276 4.64052 11.9136 5.45455 10.9094 5.45455H5.4549C4.45075 5.45455 3.63672 4.64052 3.63672 3.63636V1.81818ZM10.9094 1.81818H5.4549V3.63636H10.9094V1.81818Z"/>
<path id="Vector (Stroke)_3" fill-rule="evenodd" clip-rule="evenodd" d="M4.54688 9.30362C4.54688 8.80155 4.95389 8.39453 5.45597 8.39453H10.9105C11.4126 8.39453 11.8196 8.80155 11.8196 9.30362C11.8196 9.8057 11.4126 10.2127 10.9105 10.2127H5.45597C4.95389 10.2127 4.54688 9.8057 4.54688 9.30362Z"/>
<path id="Vector (Stroke)_4" fill-rule="evenodd" clip-rule="evenodd" d="M4.54688 12.9403C4.54688 12.4383 4.95389 12.0312 5.45597 12.0312H10.9105C11.4126 12.0312 11.8196 12.4383 11.8196 12.9403C11.8196 13.4424 11.4126 13.8494 10.9105 13.8494H5.45597C4.95389 13.8494 4.54688 13.4424 4.54688 12.9403Z"/>
</g>
</svg>
