<svg width="20" height="20" viewBox="0 0 20 20" fill="none" xmlns="http://www.w3.org/2000/svg">
<g id="Edit">
<path id="Vector" d="M4.32255 15.356C4.36719 15.356 4.41183 15.3516 4.45647 15.3449L8.21094 14.6864C8.25558 14.6775 8.29799 14.6574 8.32924 14.6239L17.7913 5.16183C17.812 5.14118 17.8284 5.11665 17.8396 5.08965C17.8508 5.06265 17.8566 5.0337 17.8566 5.00446C17.8566 4.97523 17.8508 4.94628 17.8396 4.91928C17.8284 4.89228 17.812 4.86775 17.7913 4.8471L14.0815 1.13504C14.0391 1.09263 13.9833 1.07031 13.923 1.07031C13.8627 1.07031 13.8069 1.09263 13.7645 1.13504L4.30246 10.5971C4.26897 10.6306 4.24888 10.6708 4.23996 10.7154L3.58147 14.4699C3.55976 14.5894 3.56752 14.7125 3.60408 14.8284C3.64064 14.9443 3.7049 15.0496 3.79129 15.135C3.93862 15.2779 4.12388 15.356 4.32255 15.356ZM5.82701 11.4632L13.923 3.36942L15.5592 5.00558L7.46317 13.0993L5.47879 13.4498L5.82701 11.4632ZM18.2132 17.231H1.7846C1.38951 17.231 1.07031 17.5502 1.07031 17.9453V18.7489C1.07031 18.8471 1.15067 18.9275 1.24888 18.9275H18.7489C18.8471 18.9275 18.9275 18.8471 18.9275 18.7489V17.9453C18.9275 17.5502 18.6083 17.231 18.2132 17.231Z"/>
</g>
</svg>
