<svg width="88" height="52" viewBox="0 0 88 52" fill="none" xmlns="http://www.w3.org/2000/svg">
<g id="Group 1839">
<path id="Vector" d="M77.2929 31.0843C77.5364 29.9491 77.659 28.7916 77.6587 27.6309C77.6587 25.4775 77.2312 23.3451 76.4007 21.3556C75.5702 19.3661 74.3529 17.5584 72.8183 16.0357C71.2837 14.513 69.4619 13.3051 67.4569 12.481C65.4519 11.6569 63.3029 11.2328 61.1327 11.2328C60.1084 11.2338 59.0862 11.3277 58.0791 11.5132C57.6579 11.4362 57.2312 11.5132 56.7934 11.4637C55.2358 8.10549 52.7345 5.26476 49.5897 3.28264C46.4449 1.30051 42.7903 0.261242 39.0648 0.289629H32.9687C30.4173 0.277325 27.8885 0.764619 25.5272 1.7236C23.1659 2.68257 21.0185 4.09439 19.208 5.87817C17.3974 7.66196 15.9593 9.78266 14.976 12.1188C13.9928 14.455 13.4836 16.9606 13.4778 19.4923C13.4778 19.6353 13.4778 19.7068 13.4778 19.8498C9.4463 20.5563 5.82977 22.7409 3.34594 25.9701C0.862109 29.1993 -0.30748 33.2371 0.0692686 37.2821C0.446017 41.3271 2.34157 45.0838 5.37976 47.8066C8.41795 50.5294 12.3767 52.0194 16.4705 51.9808H76.3231C79.1157 52.1069 81.8444 51.1271 83.909 49.2569C85.9736 47.3867 87.2049 44.7793 87.3321 42.0082C87.4592 39.2372 86.4718 36.5295 84.587 34.4809C82.7022 32.4323 80.0744 31.2105 77.2818 31.0843H77.2929Z" fill="#007CB0"/>
<path id="Vector_2" opacity="0.5" d="M77.2929 31.0843C77.5364 29.9491 77.659 28.7916 77.6587 27.6309C77.6587 25.4775 77.2312 23.3451 76.4007 21.3556C75.5702 19.3661 74.3529 17.5584 72.8183 16.0357C71.2837 14.513 69.4619 13.3051 67.4569 12.481C65.4519 11.6569 63.3029 11.2328 61.1327 11.2328C60.1084 11.2338 59.0862 11.3277 58.0791 11.5132C57.6579 11.4362 57.2312 11.5132 56.7934 11.4637C55.2358 8.10549 52.7345 5.26476 49.5897 3.28264C46.4449 1.30051 42.7903 0.261242 39.0648 0.289629H32.9687C30.4173 0.277325 27.8885 0.764619 25.5272 1.7236C23.1659 2.68257 21.0185 4.09439 19.208 5.87817C17.3974 7.66196 15.9593 9.78266 14.976 12.1188C13.9928 14.455 13.4836 16.9606 13.4778 19.4923C13.4778 19.6353 13.4778 19.7068 13.4778 19.8498C9.4463 20.5563 5.82977 22.7409 3.34594 25.9701C0.862109 29.1993 -0.30748 33.2371 0.0692686 37.2821C0.446017 41.3271 2.34157 45.0838 5.37976 47.8066C8.41795 50.5294 12.3767 52.0194 16.4705 51.9808H76.3231C79.1157 52.1069 81.8444 51.1271 83.909 49.2569C85.9736 47.3867 87.2049 44.7793 87.3321 42.0082C87.4592 39.2372 86.4718 36.5295 84.587 34.4809C82.7022 32.4323 80.0744 31.2105 77.2818 31.0843H77.2929Z" fill="white"/>
<g id="Group 1838">
<path id="Vector_3" d="M3.17422 44.5781C2.84782 45.1946 2.64776 45.8424 2.553 46.5319C2.52141 46.7305 2.83728 46.7305 2.86887 46.5319C2.9531 45.8946 3.14263 45.2991 3.43745 44.7349C3.54274 44.5572 3.26898 44.4005 3.17422 44.5781Z" fill="#0A1E40"/>
<path id="Vector_4" opacity="0.4" d="M77.2944 31.0843C77.5379 29.9491 77.6605 28.7916 77.6602 27.6309C77.6602 25.4775 77.2328 23.3451 76.4022 21.3556C75.5717 19.3661 74.3545 17.5584 72.8199 16.0357C71.2853 14.513 69.4635 13.3051 67.4585 12.481C65.4534 11.6569 63.3045 11.2328 61.1343 11.2328C60.1099 11.2338 59.0878 11.3277 58.0807 11.5132C57.6595 11.4362 57.2327 11.5132 56.7949 11.4637C55.2374 8.10549 52.736 5.26476 49.5912 3.28264C46.4464 1.30051 42.7919 0.261242 39.0664 0.289629C36.515 0.277325 33.9862 0.764619 31.6249 1.7236C29.2636 2.68257 27.1162 4.09439 25.3056 5.87817C23.4951 7.66196 22.057 9.78266 21.0737 12.1188C20.0904 14.455 19.5813 16.9606 19.5755 19.4923C19.5755 19.6353 19.5755 19.7068 19.5755 19.8498C15.544 20.5563 11.9274 22.7409 9.4436 25.9701C6.95977 29.1993 5.79018 33.2371 6.16692 37.2821C6.54367 41.3271 8.43922 45.0838 11.4774 47.8066C14.5156 50.5294 18.4744 52.0194 22.5681 51.9808H76.3246C79.1172 52.1069 81.846 51.1271 83.9106 49.2569C85.9752 47.3867 87.2065 44.7793 87.3336 42.0082C87.4607 39.2372 86.4733 36.5295 84.5885 34.4809C82.7037 32.4323 80.076 31.2105 77.2834 31.0843H77.2944Z" fill="white"/>
</g>
</g>
</svg>
