<svg width="304" height="227" viewBox="0 0 304 227" fill="none" xmlns="http://www.w3.org/2000/svg">
<path d="M42.7705 76.6575C46.1525 73.9238 50.7315 73.5279 54.9115 74.282C59.3765 75.0738 63.4425 77.2042 67.5655 78.9953C71.8215 80.8617 76.1535 82.2003 80.8275 82.4265C85.4825 82.6716 90.1375 82.0118 94.6595 80.8806C104.102 78.524 112.766 73.9992 121.829 70.5868C126.37 68.8712 131.063 67.3818 135.889 66.7031C138.511 66.326 141.152 66.2318 143.793 66.5146C146.301 66.7785 148.752 67.3629 151.203 67.9662C156.618 69.3048 162.015 70.4737 167.562 71.1336C173.281 71.8123 179.057 72.0385 184.814 71.85C185.176 71.8311 185.176 71.2655 184.814 71.2844C174.365 71.6614 163.914 70.5491 153.768 68.0417C148.923 66.8351 144.116 65.5908 139.081 65.8358C134.198 66.0809 129.372 67.3629 124.774 68.9277C115.559 72.0762 106.895 76.6952 97.5475 79.5043C92.7975 80.9183 87.8765 81.8987 82.8985 81.9175C77.8445 81.9364 73.0945 80.7675 68.4775 78.769C63.9175 76.8083 59.4525 74.3763 54.4935 73.6222C50.2755 72.9812 45.7725 73.4902 42.3715 76.2427C42.0865 76.4878 42.4855 76.9026 42.7705 76.6575Z" fill="#E8E8E8"/>
<path d="M145.106 59.4247C158.273 65.0617 173.226 64.1191 186.697 60.028C193.993 57.8033 201.251 54.8245 209.022 54.8433C216.85 54.8622 224.279 57.577 231.936 58.7836C238.89 59.8771 246.547 59.7452 252.513 55.5975C252.817 55.3901 252.532 54.8999 252.228 55.1073C246.718 58.9345 239.726 59.2738 233.266 58.4066C225.951 57.4262 218.921 54.8999 211.53 54.372C204.139 53.8441 197.166 56.0499 190.231 58.3123C183.315 60.5558 176.323 62.3092 169.046 62.724C160.99 63.1953 152.839 62.1207 145.41 58.9345C145.068 58.7837 144.783 59.2738 145.106 59.4247Z" fill="#E8E8E8"/>
<path d="M35.5126 106.426C39.6736 103.485 44.5946 101.675 49.6866 101.184C52.2326 100.939 54.7976 101.034 57.3056 101.467C59.9086 101.92 62.4166 102.787 64.9056 103.654C69.5226 105.238 74.1016 106.444 78.9656 105.332C83.1646 104.371 86.9646 102.203 90.6886 100.148C95.0776 97.7155 99.6376 95.2269 104.73 94.7744C105.091 94.7367 105.091 94.1711 104.73 94.2088C95.6476 95.0195 88.8266 101.788 80.3526 104.371C78.2056 105.03 75.9636 105.37 73.7216 105.238C70.9666 105.068 68.2876 104.22 65.7036 103.334C63.1006 102.448 60.4976 101.486 57.7616 100.977C55.4056 100.543 52.9926 100.411 50.6176 100.562C45.1076 100.902 39.7306 102.768 35.2276 105.954C34.9236 106.143 35.2086 106.633 35.5126 106.426Z" fill="#E8E8E8"/>
<path d="M85.883 113.663C93.274 105.914 104.142 102.747 114.649 102.653C120.748 102.596 126.828 103.463 132.775 104.726C138.437 105.914 143.928 107.46 149.78 106.687C155.898 105.876 161.617 103.275 167.089 100.541C167.412 100.371 167.127 99.8811 166.804 100.051C161.598 102.653 156.183 105.122 150.388 106.027C147.424 106.48 144.441 106.442 141.477 105.971C138.475 105.499 135.549 104.708 132.566 104.085C121.698 101.823 110.127 100.861 99.449 104.538C94.186 106.348 89.322 109.232 85.484 113.248C85.237 113.531 85.636 113.927 85.883 113.663Z" fill="#E8E8E8"/>
<path d="M173.945 119.3C177.042 120.375 180.215 119.376 183.046 118.037C186.219 116.529 189.202 114.662 192.451 113.324C195.7 111.985 199.196 111.08 202.73 111.514C205.96 111.91 208.943 113.343 211.774 114.87C214.453 116.321 217.094 117.905 219.944 119.017C223.117 120.243 226.537 120.827 229.938 120.752C236.911 120.601 242.839 117.151 249.204 114.813C255.151 112.626 263.074 111.646 267.843 116.774C268.09 117.038 268.489 116.642 268.242 116.378C264.499 112.362 258.533 111.91 253.403 112.984C246.715 114.379 240.939 118.433 234.213 119.734C230.622 120.431 226.86 120.337 223.307 119.489C220.001 118.697 217.037 117.151 214.073 115.511C211.394 114.021 208.677 112.475 205.732 111.589C202.673 110.665 199.481 110.647 196.384 111.401C192.603 112.324 189.126 114.153 185.725 116.001C182.21 117.886 178.144 120.186 174.059 118.772C173.755 118.64 173.603 119.187 173.945 119.3Z" fill="#E8E8E8"/>
<path d="M223.975 128.388C231.841 128.859 238.32 123.561 245.749 121.959C247.725 121.525 249.815 121.337 251.829 121.676C253.634 121.978 255.268 122.713 256.826 123.655C259.505 125.277 262.108 127.369 265.376 127.596C269.347 127.86 272.862 125.409 275.826 123.109C276.111 122.882 275.712 122.487 275.427 122.713C272.539 124.937 269.081 127.369 265.205 127.011C261.842 126.71 259.182 124.296 256.351 122.732C249.834 119.112 242.861 121.959 236.61 124.692C232.601 126.427 228.44 128.105 223.994 127.841C223.614 127.803 223.614 128.369 223.975 128.388Z" fill="#0A1E40"/>
<path d="M44.6313 164.436C47.3863 161.834 51.4713 160.816 55.1383 161.815C58.9763 162.852 61.4463 166.133 64.5243 168.395C70.6613 172.901 79.0212 172.185 85.7663 169.526C93.7272 166.397 100.358 160.741 108.3 157.555C112.176 155.99 116.375 154.991 120.593 155.273C124.697 155.556 128.193 157.309 131.442 159.685C134.672 162.042 137.712 164.832 141.493 166.321C145.54 167.905 150.1 167.566 153.9 165.473C154.223 165.303 153.938 164.813 153.615 164.983C149.739 167.113 145.103 167.302 141.056 165.529C137.674 164.04 134.9 161.551 131.955 159.364C128.934 157.121 125.723 155.368 121.923 154.84C118.009 154.312 114.019 154.972 110.314 156.197C102.201 158.893 95.5133 164.455 87.8183 168.018C80.7123 171.317 71.5733 172.863 64.8283 167.905C61.4653 165.435 58.8242 161.91 54.4922 161.08C50.8253 160.383 46.9303 161.476 44.2323 164.04C43.9663 164.285 44.3653 164.7 44.6313 164.436Z" fill="#E8E8E8"/>
<path d="M117.633 174.954C120.768 172.937 124.492 171.975 128.235 172.277C131.655 172.56 134.885 173.823 138.02 175.086C141.06 176.311 144.138 177.593 147.406 178.121C150.826 178.668 154.284 178.253 157.57 177.254C161.503 176.047 165.151 174.124 168.742 172.182C169.065 172.013 168.78 171.523 168.457 171.692C161.883 175.218 154.664 178.932 146.95 177.461C140.509 176.236 134.847 172.277 128.216 171.711C124.378 171.391 120.54 172.39 117.329 174.464C117.044 174.671 117.329 175.161 117.633 174.954Z" fill="#E8E8E8"/>
<path d="M189.354 187.738C193.496 183.892 198.588 181.121 204.079 179.707C206.872 178.99 209.741 178.632 212.629 178.651C215.84 178.689 219.032 179.198 222.224 179.499C228.418 180.084 234.365 179.047 240.16 176.803C245.689 174.673 250.895 170.978 256.842 170.073C263.796 169.017 269.173 173.598 273.6 178.293C273.847 178.557 274.246 178.161 273.999 177.897C270.351 174.032 266.057 170.035 260.509 169.413C254.429 168.734 248.9 172.279 243.618 174.711C237.538 177.52 230.983 179.443 224.238 179.066C220.875 178.877 217.55 178.274 214.168 178.104C211.299 177.953 208.411 178.161 205.599 178.745C199.386 180.008 193.591 182.987 188.955 187.305C188.689 187.587 189.088 187.983 189.354 187.738Z" fill="#E8E8E8"/>
<path d="M78.1098 68.604C83.4298 72.6952 90.3648 70.8853 96.1598 69C103.342 66.6433 110.619 65.1539 118.219 65.0031C118.58 65.0031 118.58 64.4375 118.219 64.4375C111.227 64.5695 104.33 65.7572 97.6797 67.9065C91.6568 69.8483 84.1708 72.582 78.5088 68.2081C78.2238 67.9819 77.8248 68.3778 78.1098 68.604Z" fill="#0A1E40"/>
<path d="M129.333 34.3305C135.755 33.8592 141.949 32.087 148.162 30.5976C154.622 29.0328 161.101 27.9959 167.77 28.7123C174.496 29.4287 181.013 31.446 187.606 32.8788C193.952 34.2739 200.393 34.9149 206.891 34.5944C214.206 34.2362 221.426 32.7091 228.247 30.1074C228.589 29.9754 228.437 29.4287 228.095 29.5607C215.688 34.2928 202.141 35.292 189.145 32.6149C182.666 31.2763 176.32 29.3156 169.765 28.3729C163.438 27.468 157.263 27.977 151.031 29.3344C143.811 30.8992 136.724 33.1993 129.333 33.7461C128.972 33.8026 128.972 34.3682 129.333 34.3305Z" fill="#0A1E40"/>
<path d="M232.161 81.5781C237.709 79.542 243.466 82.4454 249.014 82.9733C251.997 83.2561 254.961 82.9733 257.868 82.2945C260.718 81.6158 263.492 80.6166 266.399 80.183C269.515 79.7117 272.84 79.9002 275.538 81.6535C275.842 81.8609 276.127 81.3707 275.823 81.1634C271.035 78.0714 265.183 79.7305 260.129 81.1256C256.956 82.0117 253.783 82.6528 250.477 82.5208C247.323 82.4077 244.302 81.5404 241.224 80.8994C238.165 80.2773 235.011 79.9379 232.028 81.0314C231.667 81.1445 231.819 81.6912 232.161 81.5781Z" fill="#0A1E40"/>
<path d="M38.4938 138.776C43.3198 134.515 50.1218 138.286 55.4798 139.096C61.6738 140.039 67.8678 138.342 73.7768 136.702C74.1378 136.608 73.9858 136.061 73.6248 136.155C67.0888 137.965 60.3248 139.756 53.5418 138.154C48.5828 136.985 42.5218 134.496 38.0758 138.38C37.8098 138.606 38.2088 139.002 38.4938 138.776Z" fill="#0A1E40"/>
<path d="M99.2574 191.715C100.796 189.905 103.171 188.925 105.565 189.227C106.933 189.396 108.187 190.018 109.441 190.565C110.486 191.018 111.55 191.395 112.633 191.696C117.288 192.978 122.285 192.79 126.826 191.206C127.168 191.093 127.016 190.546 126.674 190.659C121.582 192.413 115.958 192.413 110.885 190.527C108.681 189.717 106.629 188.416 104.178 188.604C102.107 188.755 100.188 189.736 98.8394 191.3C98.6114 191.602 99.0294 191.998 99.2574 191.715Z" fill="#0A1E40"/>
<path d="M131.596 190.169C135.054 189.17 138.607 188.68 142.217 188.699C142.578 188.699 142.578 188.133 142.217 188.133C138.569 188.114 134.959 188.623 131.444 189.623C131.102 189.736 131.235 190.283 131.596 190.169Z" fill="#0A1E40"/>
<path d="M136.118 43.6242C139.481 46.1882 142.692 48.9408 145.77 51.863C146.036 52.1081 146.435 51.7122 146.169 51.4671C143.072 48.526 139.804 45.7546 136.403 43.1529C136.118 42.9078 135.833 43.398 136.118 43.6242Z" fill="#0A1E40"/>
<path d="M103.172 53.5622C103.495 51.79 103.837 50.0178 104.16 48.2267C104.236 47.8685 103.685 47.7177 103.609 48.0759C103.286 49.8481 102.944 51.6203 102.621 53.4113C102.564 53.7695 103.115 53.9204 103.172 53.5622Z" fill="#0A1E40"/>
<path d="M212.723 64.7963C213.332 64.7963 213.825 64.3068 213.825 63.7029C213.825 63.0989 213.332 62.6094 212.723 62.6094C212.114 62.6094 211.621 63.0989 211.621 63.7029C211.621 64.3068 212.114 64.7963 212.723 64.7963Z" fill="#007CB0"/>
<path d="M68.7407 155.102C69.4647 155.102 70.0517 154.519 70.0517 153.801C70.0517 153.082 69.4647 152.5 68.7407 152.5C68.0166 152.5 67.4297 153.082 67.4297 153.801C67.4297 154.519 68.0166 155.102 68.7407 155.102Z" fill="#007CB0"/>
<path d="M62.3965 37.2505C64.0545 37.2505 65.3985 35.9169 65.3985 34.2718C65.3985 32.6266 64.0545 31.293 62.3965 31.293C60.7386 31.293 59.3945 32.6266 59.3945 34.2718C59.3945 35.9169 60.7386 37.2505 62.3965 37.2505Z" fill="#007CB0"/>
<path d="M68.4172 40.1351C68.9733 40.1351 69.4242 39.6878 69.4242 39.1359C69.4242 38.5841 68.9733 38.1367 68.4172 38.1367C67.861 38.1367 67.4102 38.5841 67.4102 39.1359C67.4102 39.6878 67.861 40.1351 68.4172 40.1351Z" fill="#007CB0"/>
<path d="M125.949 207.836C127.187 207.836 128.191 206.84 128.191 205.611C128.191 204.383 127.187 203.387 125.949 203.387C124.711 203.387 123.707 204.383 123.707 205.611C123.707 206.84 124.711 207.836 125.949 207.836Z" fill="#007CB0"/>
<path d="M230.148 41.1363C231.239 41.1363 232.124 40.2584 232.124 39.1756C232.124 38.0927 231.239 37.2148 230.148 37.2148C229.057 37.2148 228.172 38.0927 228.172 39.1756C228.172 40.2584 229.057 41.1363 230.148 41.1363Z" fill="#007CB0"/>
<path d="M232.673 36.8194C233.345 36.8194 233.889 36.2792 233.889 35.6128C233.889 34.9465 233.345 34.4062 232.673 34.4062C232.001 34.4062 231.457 34.9465 231.457 35.6128C231.457 36.2792 232.001 36.8194 232.673 36.8194Z" fill="#007CB0"/>
<path d="M65.4161 34.1216C67.074 34.1216 68.4181 32.788 68.4181 31.1429C68.4181 29.4977 67.074 28.1641 65.4161 28.1641C63.7581 28.1641 62.4141 29.4977 62.4141 31.1429C62.4141 32.788 63.7581 34.1216 65.4161 34.1216Z" fill="#0A1E40"/>
<path d="M63.9151 156.858C64.744 156.858 65.4161 156.191 65.4161 155.368C65.4161 154.546 64.744 153.879 63.9151 153.879C63.0861 153.879 62.4141 154.546 62.4141 155.368C62.4141 156.191 63.0861 156.858 63.9151 156.858Z" fill="#0A1E40"/>
<path d="M116.678 203.518C117.412 203.518 118.008 202.927 118.008 202.199C118.008 201.47 117.412 200.879 116.678 200.879C115.943 200.879 115.348 201.47 115.348 202.199C115.348 202.927 115.943 203.518 116.678 203.518Z" fill="#0A1E40"/>
<path d="M222.849 34.4038C224.591 34.4038 226.003 33.0026 226.003 31.2741C226.003 29.5457 224.591 28.1445 222.849 28.1445C221.107 28.1445 219.695 29.5457 219.695 31.2741C219.695 33.0026 221.107 34.4038 222.849 34.4038Z" fill="#0A1E40"/>
<path d="M170.922 81.8027C171.3 81.8027 171.606 81.4989 171.606 81.124C171.606 80.7492 171.3 80.4453 170.922 80.4453C170.545 80.4453 170.238 80.7492 170.238 81.124C170.238 81.4989 170.545 81.8027 170.922 81.8027Z" fill="#0A1E40"/>
<path d="M163.913 41.3983C163.514 42.3221 163.134 43.2648 162.735 44.1886C162.602 44.5279 163.153 44.6788 163.286 44.3394C163.685 43.4156 164.065 42.4729 164.464 41.5491C164.597 41.2098 164.046 41.059 163.913 41.3983Z" fill="#0A1E40"/>
<path d="M163.816 41.8541C164.519 42.5893 165.07 43.4189 165.431 44.3615C165.564 44.7009 166.115 44.5501 165.982 44.2107C165.564 43.1738 164.975 42.2688 164.215 41.4581C163.968 41.1942 163.55 41.5901 163.816 41.8541Z" fill="#0A1E40"/>
<path d="M162.888 44.6816C163.439 45.6997 164.066 46.6612 164.769 47.5661C164.997 47.8489 165.491 47.5661 165.263 47.2833C164.56 46.3595 163.933 45.398 163.382 44.3988C163.192 44.0783 162.717 44.3611 162.888 44.6816Z" fill="#0A1E40"/>
<path d="M165.469 44.3983C165.241 45.4541 165.032 46.5099 164.804 47.5656C164.728 47.9238 165.279 48.0747 165.355 47.7165C165.583 46.6607 165.792 45.6049 166.02 44.5491C166.096 44.2098 165.545 44.059 165.469 44.3983Z" fill="#0A1E40"/>
<path d="M217.436 122.109C216.98 122.939 216.676 123.825 216.543 124.767C216.486 125.126 217.037 125.276 217.094 124.918C217.227 124.032 217.493 123.203 217.93 122.411C218.101 122.071 217.607 121.789 217.436 122.109Z" fill="#0A1E40"/>
<path d="M217.396 122.28C217.776 123.279 218.213 124.24 218.707 125.164C218.878 125.485 219.372 125.202 219.201 124.881C218.726 123.995 218.308 123.071 217.947 122.129C217.814 121.789 217.263 121.94 217.396 122.28Z" fill="#0A1E40"/>
<path d="M216.429 125.166C216.923 125.863 217.398 126.561 217.892 127.258C218.101 127.56 218.595 127.277 218.386 126.976C217.892 126.278 217.417 125.58 216.923 124.883C216.714 124.581 216.22 124.864 216.429 125.166Z" fill="#0A1E40"/>
<path d="M218.499 125.07C218.1 125.617 217.91 126.239 217.91 126.899C217.91 127.257 218.48 127.257 218.48 126.899C218.48 126.334 218.651 125.806 218.993 125.353C219.202 125.052 218.708 124.769 218.499 125.07Z" fill="#0A1E40"/>
<path d="M58.5013 175.485C57.9883 176.597 57.4753 177.691 56.9623 178.803C56.8103 179.123 57.3043 179.425 57.4563 179.086C57.9693 177.973 58.4823 176.88 58.9953 175.768C59.1473 175.447 58.6723 175.164 58.5013 175.485Z" fill="#0A1E40"/>
<path d="M58.5948 175.635C59.0888 176.804 59.5828 177.973 60.0768 179.142C60.2098 179.481 60.7608 179.33 60.6278 178.991C60.1338 177.822 59.6398 176.653 59.1458 175.484C59.0128 175.145 58.4618 175.296 58.5948 175.635Z" fill="#0A1E40"/>
<path d="M56.8285 179.309C57.3415 180.308 57.8355 181.326 58.3485 182.326C58.4435 182.495 58.6715 182.495 58.8045 182.382C59.2035 182.062 59.3935 181.515 59.6025 181.081C59.9065 180.478 60.2105 179.875 60.5145 179.271C60.6855 178.951 60.1915 178.668 60.0205 178.989C59.7545 179.517 59.4695 180.044 59.2035 180.572C58.9755 181.025 58.7665 181.647 58.3675 181.967C58.5195 181.986 58.6715 182.005 58.8235 182.024C58.3105 181.025 57.8165 180.007 57.3035 179.007C57.1515 178.706 56.6575 178.989 56.8285 179.309Z" fill="#0A1E40"/>
<path d="M249.66 88.5136C250.249 89.6448 250.819 90.776 251.408 91.9072C251.579 92.2277 252.073 91.9449 251.902 91.6244C251.313 90.4932 250.743 89.362 250.154 88.2308C249.983 87.9103 249.489 88.1931 249.66 88.5136Z" fill="#0A1E40"/>
<path d="M248.653 91.4536C249.128 92.5848 249.698 93.6406 250.382 94.6398C250.591 94.9415 251.085 94.6587 250.876 94.357C250.211 93.3955 249.641 92.3774 249.204 91.3028C249.071 90.9823 248.52 91.1331 248.653 91.4536Z" fill="#0A1E40"/>
<path d="M251.235 91.6991C250.893 92.7549 250.608 93.8295 250.418 94.9418C250.361 95.3001 250.912 95.4509 250.969 95.0927C251.159 93.9992 251.425 92.9246 251.786 91.8499C251.9 91.5106 251.349 91.3597 251.235 91.6991Z" fill="#0A1E40"/>
<path d="M247.532 179.385C247.304 180.139 247.095 180.874 246.867 181.628C246.772 181.986 247.304 182.118 247.418 181.779C247.646 181.025 247.855 180.289 248.083 179.535C248.197 179.177 247.646 179.026 247.532 179.385Z" fill="#0A1E40"/>
<path d="M247.494 179.799C247.836 180.553 248.197 181.307 248.539 182.043C248.691 182.382 249.185 182.08 249.033 181.76C248.691 181.006 248.33 180.252 247.988 179.516C247.836 179.177 247.342 179.46 247.494 179.799Z" fill="#0A1E40"/>
<path d="M247.019 181.988C247.19 182.874 247.608 183.666 248.197 184.345C248.444 184.628 248.843 184.213 248.596 183.949C248.064 183.346 247.722 182.629 247.57 181.856C247.494 181.479 246.943 181.63 247.019 181.988Z" fill="#0A1E40"/>
<path d="M248.52 181.914C248.273 182.706 248.159 183.516 248.178 184.327C248.197 184.685 248.767 184.685 248.748 184.327C248.729 183.554 248.824 182.8 249.071 182.065C249.185 181.725 248.634 181.575 248.52 181.914Z" fill="#0A1E40"/>
<path d="M51.3379 79.9189C50.9199 80.8238 50.5209 81.7288 50.1029 82.6337C49.9509 82.9542 50.4449 83.2559 50.5969 82.9165C51.0149 82.0116 51.4139 81.1066 51.8319 80.2017C51.9839 79.8812 51.4899 79.5795 51.3379 79.9189Z" fill="#0A1E40"/>
<path d="M50.1768 83.1038C50.6138 84.2162 51.0318 85.3097 51.4688 86.422C51.6018 86.7613 52.1528 86.6105 52.0198 86.2712C51.5828 85.1588 51.1648 84.0653 50.7278 82.953C50.5948 82.6137 50.0438 82.7645 50.1768 83.1038Z" fill="#0A1E40"/>
<path d="M51.3357 79.955C51.9247 80.9731 52.5137 82.01 53.1027 83.0281C53.2927 83.3486 53.7677 83.0658 53.5967 82.7453C53.0077 81.7272 52.4187 80.6903 51.8297 79.6722C51.6397 79.3517 51.1457 79.6345 51.3357 79.955Z" fill="#0A1E40"/>
<path d="M53.2376 82.7816C52.6296 83.9128 52.0976 85.0817 51.6416 86.2695C51.5086 86.6088 52.0596 86.7596 52.1926 86.4203C52.6296 85.2702 53.1426 84.139 53.7316 83.0644C53.9026 82.7439 53.4086 82.4611 53.2376 82.7816Z" fill="#0A1E40"/>
<path d="M186.409 48.9987C186.675 48.5085 186.979 48.3765 187.321 48.6028C187.473 48.6593 187.625 48.7347 187.777 48.829C187.948 48.9044 188.119 49.0175 188.29 49.0741C188.594 49.1684 188.898 49.2061 189.202 49.1307C190.019 48.9044 190.437 47.8864 191.311 47.9052C192.128 47.9241 192.717 48.697 193.572 48.3011C193.933 48.1314 194.18 47.8298 194.522 47.6413C195.282 47.2265 196.213 47.3773 196.859 47.9052C197.144 48.1314 197.543 47.7355 197.258 47.5093C196.403 46.8117 195.225 46.6043 194.237 47.1511C193.8 47.3962 193.439 47.9241 192.869 47.8486C192.546 47.8109 192.261 47.5847 191.957 47.4716C191.501 47.3019 191.083 47.2453 190.627 47.4527C190.057 47.7167 189.677 48.452 189.05 48.5839C188.252 48.7536 187.72 47.9429 186.979 47.9241C186.276 47.9052 185.459 48.5839 185.934 49.2815C186.124 49.5831 186.618 49.3003 186.409 48.9987Z" fill="#007CB0"/>
<path d="M192.715 45.661C192.943 44.4355 195.09 45.6232 195.85 45.4913C196.344 45.4159 196.705 45.0765 197.161 44.9068C197.883 44.624 198.586 44.7371 199.251 45.1331C199.574 45.3216 199.859 44.8314 199.536 44.6429C198.966 44.3035 198.358 44.1338 197.712 44.1904C197.427 44.2093 197.161 44.2847 196.914 44.3789C196.154 44.6994 195.85 45.0577 194.9 44.8314C193.988 44.6052 192.43 44.1527 192.183 45.5101C192.088 45.8683 192.639 46.0192 192.715 45.661Z" fill="#007CB0"/>
<path d="M48.8672 113.795C49.1142 112.608 50.7672 114.229 51.0902 114.436C51.4512 114.682 51.8502 114.851 52.2872 114.757C52.8572 114.663 53.2942 114.191 53.8832 114.059C54.8332 113.852 55.7832 114.154 56.4672 114.832C56.7332 115.096 57.1322 114.682 56.8662 114.436C56.2772 113.852 55.5552 113.494 54.7192 113.437C54.3012 113.4 53.8832 113.456 53.4842 113.588C52.8572 113.795 52.3632 114.399 51.6032 114.097C50.8052 113.777 50.5012 112.966 49.5892 112.872C49.0002 112.815 48.4492 113.041 48.3352 113.645C48.2402 114.003 48.7912 114.154 48.8672 113.795Z" fill="#007CB0"/>
<path d="M55.1929 112.438C55.6109 111.872 57.5299 113.003 58.0809 113.135C58.9739 113.343 59.886 113.343 60.798 113.23C61.159 113.173 61.007 112.626 60.646 112.683C59.069 112.89 57.8529 112.476 56.4279 111.91C55.7819 111.665 55.1359 111.571 54.6989 112.155C54.4899 112.438 54.9839 112.721 55.1929 112.438Z" fill="#007CB0"/>
<path d="M101.517 151.955C101.821 151.484 102.296 151.182 102.885 151.182C103.379 151.182 103.683 151.484 104.12 151.616C104.557 151.767 104.918 151.673 105.298 151.428C106.039 150.937 106.4 150.334 107.407 150.372C108.319 150.391 109.193 150.824 109.991 151.22C110.314 151.39 110.599 150.9 110.276 150.73C108.775 149.976 106.951 149.259 105.507 150.485C105.184 150.749 105.146 150.824 104.652 150.919C104.101 151.032 104.158 150.956 103.74 150.787C103.379 150.636 103.037 150.579 102.638 150.617C101.935 150.692 101.384 151.088 101.023 151.654C100.833 151.974 101.327 152.257 101.517 151.955Z" fill="#007CB0"/>
<path d="M107.842 153.048C108.735 152.275 110.426 153.897 111.528 153.746C112.193 153.651 112.497 153.161 112.934 152.709C113.77 151.823 115.024 151.691 116.05 152.351C116.354 152.539 116.639 152.068 116.335 151.86C115.594 151.389 114.72 151.238 113.865 151.483C113.485 151.596 113.143 151.766 112.839 152.011C112.383 152.388 112.098 153.067 111.452 153.18C110.065 153.425 108.754 151.502 107.443 152.652C107.177 152.897 107.576 153.293 107.842 153.048Z" fill="#007CB0"/>
<path d="M81.9253 32.1243C82.0773 31.5022 82.4383 31.012 83.0463 30.7481C83.5783 30.5218 84.0153 30.6727 84.5663 30.6538C85.1743 30.6161 85.6303 30.3144 85.9913 29.862C86.5423 29.1833 86.9033 28.4857 87.6823 28.0332C88.5753 27.5242 89.6013 27.4299 90.5893 27.7316C90.9503 27.8447 91.0833 27.298 90.7413 27.1848C88.9173 26.6381 87.1123 27.3357 86.0103 28.8628C85.5733 29.4661 85.2503 30.0694 84.4143 30.0882C83.9013 30.1071 83.4643 29.9939 82.9703 30.1636C82.1343 30.4464 81.5642 31.144 81.3742 31.9735C81.2792 32.3317 81.8303 32.4826 81.9253 32.1243Z" fill="#007CB0"/>
<path d="M84.6078 34.2906C83.7908 32.1413 87.7048 32.2545 88.8828 31.8397C90.3458 31.3307 91.5998 30.4257 92.8348 29.5208C93.1198 29.3134 92.8348 28.8232 92.5498 29.0306C91.7138 29.6527 90.8588 30.256 89.9468 30.7462C88.8068 31.3495 87.7238 31.538 86.4888 31.7266C85.1778 31.934 83.4678 32.8389 84.0758 34.4226C84.1898 34.7619 84.7408 34.63 84.6078 34.2906Z" fill="#007CB0"/>
</svg>
