<svg width="19" height="20" viewBox="0 0 19 20" fill="none" xmlns="http://www.w3.org/2000/svg">
<g id="Group 1000003768">
<path id="Vector" d="M9.25935 9.02743C9.25935 9.29199 9.36444 9.54571 9.55151 9.73277C9.73858 9.91984 9.9923 10.0249 10.2569 10.0249C10.5214 10.0249 10.7751 9.91984 10.9622 9.73277C11.1493 9.54571 11.2544 9.29199 11.2544 9.02743C11.2544 8.76288 11.1493 8.50916 10.9622 8.32209C10.7751 8.13502 10.5214 8.02993 10.2569 8.02993C9.9923 8.02993 9.73858 8.13502 9.55151 8.32209C9.36444 8.50916 9.25935 8.76288 9.25935 9.02743ZM18.4115 17.8279L13.8554 6.03491V1.69576H15.6434V0H2.87531V1.69576H4.66334V6.03491L0.107232 17.8279C0.0374066 18.0125 0 18.207 0 18.404C0 19.2843 0.715711 20 1.59601 20H16.9227C17.1197 20 17.3142 19.9626 17.4988 19.8928C18.3217 19.5761 18.7307 18.6509 18.4115 17.8279ZM6.3591 6.35162V1.74564H12.1596V6.35162L14.4264 12.2195C13.9102 12.0873 13.3766 12.0199 12.8329 12.0199C11.3067 12.0199 9.86035 12.5561 8.71072 13.5162C7.86224 14.225 6.79137 14.6126 5.68579 14.611C4.87032 14.611 4.08728 14.404 3.39651 14.0199L6.3591 6.35162ZM1.74065 18.3042L2.78055 15.616C3.67082 16.0673 4.66085 16.3092 5.68828 16.3092C7.21446 16.3092 8.66085 15.7731 9.81047 14.813C10.6559 14.1097 11.7132 13.7182 12.8354 13.7182C13.7082 13.7182 14.5411 13.9551 15.2693 14.394L16.7781 18.3042H1.74065Z"/>
</g>
</svg>
