<svg width="24" height="24" viewBox="0 0 24 24" fill="none" xmlns="http://www.w3.org/2000/svg">
<g id="star">
<path id="Vector" d="M14.705 7.72139L14.8679 8.05151L15.2321 8.10445L21.1807 8.96897C21.1809 8.969 21.181 8.96902 21.1812 8.96904C21.1971 8.97153 21.2087 8.97919 21.2166 8.98981C21.2206 8.99519 21.223 9.00045 21.2241 9.00487C21.2251 9.00875 21.2257 9.01357 21.2246 9.02062L21.2245 9.02061L21.2234 9.02836C21.2222 9.03709 21.218 9.04692 21.2087 9.05608C21.2086 9.05616 21.2085 9.05623 21.2085 9.05631L16.9043 13.2527L16.6408 13.5096L16.703 13.8723L17.7202 19.7997L17.7203 19.8002C17.7246 19.8253 17.708 19.8514 17.6795 19.8563L17.6785 19.8565C17.6735 19.8573 17.6679 19.8574 17.6625 19.8566C17.6572 19.8557 17.6535 19.8542 17.6515 19.8532L17.6484 19.8515L12.3257 17.0531L12 16.8818L11.6742 17.0531L6.35157 19.8515L6.35049 19.8521C6.34242 19.8563 6.33332 19.8583 6.32422 19.8576C6.31512 19.857 6.30639 19.8538 6.299 19.8484L5.88764 20.4148L6.299 19.8484C6.29162 19.8431 6.28589 19.8357 6.28245 19.8273C6.27902 19.8188 6.27803 19.8096 6.27958 19.8006L6.27974 19.7997L7.29693 13.8723L7.35917 13.5096L7.09567 13.2527L2.7902 9.05505L2.79016 9.05501C2.78045 9.04554 2.77489 9.0326 2.77471 9.01904C2.77454 9.00588 2.77944 8.99317 2.78837 8.98355C2.79733 8.97479 2.80688 8.97075 2.81538 8.96954L2.81706 8.96929L8.76784 8.10445L9.13211 8.05151L9.29495 7.72139L11.9534 2.33181C11.9535 2.33156 11.9537 2.33131 11.9538 2.33107C11.968 2.30376 12.0004 2.29545 12.0229 2.3066L12.0237 2.307C12.0328 2.31143 12.0401 2.31879 12.0446 2.32781L12.0449 2.32842L14.705 7.72139Z" stroke="black" stroke-opacity="0.85" stroke-width="1.4"/>
</g>
</svg>
