<svg width="22" height="20" viewBox="0 0 22 20" fill="none" xmlns="http://www.w3.org/2000/svg">
<path id="Vector" d="M21.072 17.5008H2.64342V0.786551C2.64342 0.668694 2.54699 0.572266 2.42913 0.572266H0.929129C0.811272 0.572266 0.714844 0.668694 0.714844 0.786551V19.2151C0.714844 19.333 0.811272 19.4294 0.929129 19.4294H21.072C21.1898 19.4294 21.2863 19.333 21.2863 19.2151V17.7151C21.2863 17.5973 21.1898 17.5008 21.072 17.5008ZM5.47734 13.3678C5.56038 13.4508 5.69431 13.4508 5.78002 13.3678L9.48449 9.68209L12.9023 13.1214C12.9854 13.2044 13.122 13.2044 13.205 13.1214L20.5818 5.74727C20.6648 5.66423 20.6648 5.52762 20.5818 5.44459L19.5211 4.38387C19.4808 4.34399 19.4264 4.32162 19.3698 4.32162C19.3131 4.32162 19.2587 4.34399 19.2184 4.38387L13.0577 10.5419L9.6452 7.10798C9.60493 7.0681 9.55054 7.04573 9.49386 7.04573C9.43719 7.04573 9.3828 7.0681 9.34252 7.10798L4.41931 12.0017C4.37943 12.042 4.35706 12.0964 4.35706 12.1531C4.35706 12.2097 4.37943 12.2641 4.41931 12.3044L5.47734 13.3678Z"/>
</svg>
