<svg width="12" height="12" viewBox="0 0 12 12" fill="none" xmlns="http://www.w3.org/2000/svg">
<g id="Frame" clip-path="url(#clip0_4791_7161)">
<g id="Group">
<path id="Vector" d="M14.3498 13.5316H16.168V15.3498H-3.83203V13.5316H-2.01385V-1.92294C-2.01385 -2.16405 -1.91807 -2.39528 -1.74758 -2.56576C-1.5771 -2.73625 -1.34586 -2.83203 -1.10476 -2.83203H13.4407C13.6818 -2.83203 13.913 -2.73625 14.0835 -2.56576C14.254 -2.39528 14.3498 -2.16405 14.3498 -1.92294V13.5316ZM12.5316 13.5316V-1.01385H-0.195668V13.5316H12.5316ZM2.53161 5.34979H5.25888V7.16797H2.53161V5.34979ZM2.53161 1.71342H5.25888V3.5316H2.53161V1.71342ZM2.53161 8.98615H5.25888V10.8043H2.53161V8.98615ZM7.07706 8.98615H9.80433V10.8043H7.07706V8.98615ZM7.07706 5.34979H9.80433V7.16797H7.07706V5.34979ZM7.07706 1.71342H9.80433V3.5316H7.07706V1.71342Z"/>
</g>
</g>
<defs>
<clipPath id="clip0_4791_7161">
<rect width="11.6667" height="11.6667" fill="white" transform="translate(0.167969 0.167969)"/>
</clipPath>
</defs>
</svg>
