<svg width="14" height="14" viewBox="0 0 14 14" fill="none" xmlns="http://www.w3.org/2000/svg">
<path d="M15.5138 14.6957H17.332V16.5138H-2.66797V14.6957H-0.849787V-0.758878C-0.849787 -0.999984 -0.754008 -1.23121 -0.58352 -1.4017C-0.413033 -1.57219 -0.181802 -1.66797 0.059304 -1.66797H14.6048C14.8459 -1.66797 15.0771 -1.57219 15.2476 -1.4017C15.4181 -1.23121 15.5138 -0.999984 15.5138 -0.758878V14.6957ZM13.6957 14.6957V0.150213H0.968395V14.6957H13.6957ZM3.69567 6.51385H6.42294V8.33203H3.69567V6.51385ZM3.69567 2.87749H6.42294V4.69567H3.69567V2.87749ZM3.69567 10.1502H6.42294V11.9684H3.69567V10.1502ZM8.24112 10.1502H10.9684V11.9684H8.24112V10.1502ZM8.24112 6.51385H10.9684V8.33203H8.24112V6.51385ZM8.24112 2.87749H10.9684V4.69567H8.24112V2.87749Z"/>
</svg>
