<svg width="14" height="14" viewBox="0 0 14 14" fill="none" xmlns="http://www.w3.org/2000/svg">
<g id="Lock">
<g id="Vector">
<path fill-rule="evenodd" clip-rule="evenodd" d="M3.34091 7.0013C3.04803 7.0013 2.81061 7.23873 2.81061 7.5316V11.2437C2.81061 11.5366 3.04803 11.774 3.34091 11.774H10.7652C11.058 11.774 11.2955 11.5366 11.2955 11.2437V7.5316C11.2955 7.23873 11.058 7.0013 10.7652 7.0013H3.34091ZM1.75 7.5316C1.75 6.65297 2.46227 5.9407 3.34091 5.9407H10.7652C11.6438 5.9407 12.3561 6.65297 12.3561 7.5316V11.2437C12.3561 12.1224 11.6438 12.8346 10.7652 12.8346H3.34091C2.46227 12.8346 1.75 12.1224 1.75 11.2437V7.5316Z"/>
<path fill-rule="evenodd" clip-rule="evenodd" d="M7.05303 2.22857C6.49045 2.22857 5.95091 2.45206 5.55311 2.84986C5.1553 3.24767 4.93182 3.78721 4.93182 4.34979V6.471C4.93182 6.76388 4.69439 7.0013 4.40152 7.0013C4.10864 7.0013 3.87121 6.76388 3.87121 6.471V4.34979C3.87121 3.50592 4.20644 2.69661 4.80314 2.0999C5.39985 1.5032 6.20916 1.16797 7.05303 1.16797C7.8969 1.16797 8.70621 1.5032 9.30292 2.0999C9.89962 2.69661 10.2348 3.50592 10.2348 4.34979V6.471C10.2348 6.76388 9.99742 7.0013 9.70455 7.0013C9.41167 7.0013 9.17424 6.76388 9.17424 6.471V4.34979C9.17424 3.78721 8.95076 3.24767 8.55295 2.84986C8.15515 2.45206 7.61561 2.22857 7.05303 2.22857Z" />
</g>
</g>
</svg>
