<svg width="16" height="17" viewBox="0 0 16 17" fill="none" xmlns="http://www.w3.org/2000/svg">
<path id="Vector" d="M14.3564 12.4294H13.1011C13.0154 12.4294 12.935 12.4669 12.8814 12.533C12.7564 12.6848 12.6225 12.8312 12.4814 12.9705C11.9044 13.5481 11.221 14.0083 10.4689 14.3259C9.68974 14.655 8.85226 14.8238 8.00643 14.8223C7.15107 14.8223 6.3225 14.6544 5.54392 14.3259C4.79183 14.0083 4.1084 13.5481 3.53142 12.9705C2.95342 12.3949 2.49253 11.7127 2.17428 10.9616C1.84392 10.183 1.67785 9.35622 1.67785 8.50086C1.67785 7.64551 1.84571 6.81872 2.17428 6.04015C2.49214 5.28836 2.94928 4.61158 3.53142 4.03122C4.11357 3.45086 4.79035 2.99372 5.54392 2.67586C6.3225 2.34729 7.15107 2.17944 8.00643 2.17944C8.86178 2.17944 9.69035 2.34551 10.4689 2.67586C11.2225 2.99372 11.8993 3.45086 12.4814 4.03122C12.6225 4.17229 12.7546 4.31872 12.8814 4.46872C12.935 4.53479 13.0171 4.57229 13.1011 4.57229H14.3564C14.4689 4.57229 14.5386 4.44729 14.4761 4.35265C13.1064 2.22408 10.71 0.81515 7.98678 0.822293C3.70821 0.833007 0.277853 4.30622 0.32071 8.57944C0.363567 12.7848 3.78857 16.1794 8.00643 16.1794C10.7225 16.1794 13.1082 14.7723 14.4761 12.6491C14.5368 12.5544 14.4689 12.4294 14.3564 12.4294ZM15.9439 8.38836L13.41 6.38836C13.3154 6.31336 13.1779 6.38122 13.1779 6.50086V7.85801H7.57071C7.49214 7.85801 7.42785 7.92229 7.42785 8.00086V9.00086C7.42785 9.07944 7.49214 9.14372 7.57071 9.14372H13.1779V10.5009C13.1779 10.6205 13.3171 10.6884 13.41 10.6134L15.9439 8.61336C15.961 8.6 15.9748 8.58293 15.9843 8.56344C15.9938 8.54394 15.9987 8.52255 15.9987 8.50086C15.9987 8.47918 15.9938 8.45778 15.9843 8.43829C15.9748 8.4188 15.961 8.40173 15.9439 8.38836V8.38836Z" />
</svg>
