<svg width="16" height="16" viewBox="0 0 16 16" fill="none" xmlns="http://www.w3.org/2000/svg">
<g clip-path="url(#clip0_4115_83188)">
<path d="M14.0013 13.332H15.3346V14.6654H0.667969V13.332H2.0013V1.9987C2.0013 1.82189 2.07154 1.65232 2.19656 1.52729C2.32159 1.40227 2.49116 1.33203 2.66797 1.33203H13.3346C13.5114 1.33203 13.681 1.40227 13.806 1.52729C13.9311 1.65232 14.0013 1.82189 14.0013 1.9987V13.332ZM12.668 13.332V2.66536H3.33464V13.332H12.668ZM5.33464 7.33203H7.33464V8.66536H5.33464V7.33203ZM5.33464 4.66536H7.33464V5.9987H5.33464V4.66536ZM5.33464 9.9987H7.33464V11.332H5.33464V9.9987ZM8.66797 9.9987H10.668V11.332H8.66797V9.9987ZM8.66797 7.33203H10.668V8.66536H8.66797V7.33203ZM8.66797 4.66536H10.668V5.9987H8.66797V4.66536Z" fill="#007CB0"/>
</g>
<defs>
<clipPath id="clip0_4115_83188">
<rect width="16" height="16" fill="white"/>
</clipPath>
</defs>
</svg>
