<svg width="24" height="24" viewBox="0 0 24 24" fill="none" xmlns="http://www.w3.org/2000/svg">
    <g id="Partition">
        <path id="Vector"
            d="M15.4441 9.79598H22.3307C22.5423 9.79598 22.7137 9.62455 22.7137 9.41295V2.52366C22.7137 2.31205 22.5423 2.14062 22.3307 2.14062H15.4441C15.2325 2.14062 15.061 2.31205 15.061 2.52366V5.01205H11.4262C11.3218 5.01205 11.236 5.09777 11.236 5.20223V11.1353H8.94051V8.55045C8.94051 8.33884 8.76909 8.16741 8.55748 8.16741H1.66819C1.45658 8.16741 1.28516 8.33884 1.28516 8.55045V15.4397C1.28516 15.6513 1.45658 15.8228 1.66819 15.8228H8.5548C8.76641 15.8228 8.93784 15.6513 8.93784 15.4397V12.8549H11.2334V18.7879C11.2334 18.8924 11.3191 18.9781 11.4235 18.9781H15.0584V21.4665C15.0584 21.6781 15.2298 21.8496 15.4414 21.8496H22.328C22.5396 21.8496 22.7111 21.6781 22.7111 21.4665V14.5826C22.7111 14.371 22.5396 14.1996 22.328 14.1996H15.4441C15.2325 14.1996 15.061 14.371 15.061 14.5826V17.2612H12.9557V6.73438H15.061V9.41295C15.061 9.62455 15.2325 9.79598 15.4441 9.79598ZM16.8771 3.95937H20.895V7.97991H16.8771V3.95937ZM7.12176 14.0067H3.10391V9.98884H7.12176V14.0067ZM16.8771 16.0183H20.895V20.0388H16.8771V16.0183Z"
        />
    </g>
</svg>