<svg width="24" height="24" viewBox="0 0 24 24" fill="none" xmlns="http://www.w3.org/2000/svg">
    <g id="PieChart" clip-path="url(#clip0_7756_114881)">
        <path id="Vector"
            d="M21.4291 12.1582H11.8399V2.56889C11.8399 2.45104 11.7434 2.35461 11.6256 2.35461H10.9291C9.52209 2.3523 8.12847 2.62824 6.82845 3.16654C5.52844 3.70484 4.34769 4.49489 3.35415 5.49122C2.37569 6.46665 1.59607 7.62289 1.05861 8.89568C0.499338 10.2158 0.212355 11.6352 0.21486 13.0689C0.212556 14.4759 0.488492 15.8696 1.02679 17.1696C1.5651 18.4696 2.35514 19.6503 3.35147 20.6439C4.3345 21.6269 5.48093 22.401 6.75593 22.9394C8.07603 23.4987 9.49546 23.7857 10.9291 23.7832C12.3362 23.7855 13.7298 23.5095 15.0298 22.9712C16.3299 22.4329 17.5106 21.6429 18.5041 20.6466C19.4872 19.6635 20.2613 18.5171 20.7997 17.2421C21.359 15.922 21.6459 14.5026 21.6434 13.0689V12.3725C21.6434 12.2546 21.547 12.1582 21.4291 12.1582ZM17.189 19.385C16.3595 20.2079 15.3759 20.8591 14.2944 21.3013C13.2128 21.7435 12.0547 21.9679 10.8863 21.9618C8.52647 21.951 6.30861 21.0269 4.63986 19.3582C2.9604 17.6787 2.03629 15.4448 2.03629 13.0689C2.03629 10.693 2.9604 8.45907 4.63986 6.77961C6.10236 5.31711 7.9854 4.42514 10.0184 4.22157V13.9796H19.7765C19.5702 16.0234 18.6702 17.9171 17.189 19.385ZM23.7863 10.6689L23.7166 9.91354C23.489 7.44657 22.3934 5.11889 20.6309 3.36175C18.8672 1.60138 16.5443 0.511926 14.0631 0.281394L13.305 0.211751C13.1791 0.201037 13.072 0.297465 13.072 0.423358V10.7118C13.072 10.8296 13.1684 10.926 13.2863 10.926L23.572 10.8993C23.6979 10.8993 23.797 10.7921 23.7863 10.6689ZM14.8881 9.10997V2.23675C16.5754 2.58991 18.1238 3.42555 19.3452 4.64211C20.5693 5.86354 21.4077 7.41711 21.7559 9.09122L14.8881 9.10997Z"
        />
    </g>
    <defs>
        <clipPath id="clip0_7756_114881">
            <rect width="24" height="24" fill="white" />
        </clipPath>
    </defs>
</svg>