<svg width="24" height="24" viewBox="0 0 24 24" fill="none" xmlns="http://www.w3.org/2000/svg">
    <g id="Pipeline">
        <path id="Vector"
            d="M7.40038 17.25C6.70038 17.8333 5.97121 18.1 5.21288 18.05C4.45454 18 3.79204 17.7417 3.22538 17.275C2.65871 16.8083 2.27121 16.1958 2.06288 15.4375C1.85454 14.6792 1.99204 13.9 2.47538 13.1L4.35038 10C3.93371 9.63333 3.60454 9.19167 3.36288 8.675C3.12121 8.15833 3.00038 7.6 3.00038 7C3.00038 5.9 3.39204 4.95833 4.17538 4.175C4.95871 3.39167 5.90038 3 7.00038 3C8.10038 3 9.04204 3.39167 9.82538 4.175C10.6087 4.95833 11.0004 5.9 11.0004 7C11.0004 8.1 10.6087 9.04167 9.82538 9.825C9.04204 10.6083 8.10038 11 7.00038 11C6.85038 11 6.70038 10.9917 6.55038 10.975C6.40038 10.9583 6.25871 10.9333 6.12538 10.9L4.20038 14.15C4.01704 14.45 3.95871 14.7458 4.02538 15.0375C4.09204 15.3292 4.23371 15.5667 4.45038 15.75C4.66704 15.9333 4.92538 16.0375 5.22538 16.0625C5.52538 16.0875 5.81704 15.9833 6.10038 15.75L16.6004 6.725C17.3004 6.14167 18.0337 5.87917 18.8004 5.9375C19.567 5.99583 20.2337 6.25833 20.8004 6.725C21.367 7.19167 21.7504 7.80417 21.9504 8.5625C22.1504 9.32083 22.0087 10.1 21.5254 10.9L19.6504 14C20.067 14.3667 20.3962 14.8083 20.6379 15.325C20.8795 15.8417 21.0004 16.4 21.0004 17C21.0004 18.1 20.6087 19.0417 19.8254 19.825C19.042 20.6083 18.1004 21 17.0004 21C15.9004 21 14.9587 20.6083 14.1754 19.825C13.392 19.0417 13.0004 18.1 13.0004 17C13.0004 15.9 13.392 14.9583 14.1754 14.175C14.9587 13.3917 15.9004 13 17.0004 13C17.1504 13 17.2962 13.0083 17.4379 13.025C17.5795 13.0417 17.717 13.0667 17.8504 13.1L19.8004 9.85C19.9837 9.55 20.042 9.25417 19.9754 8.9625C19.9087 8.67083 19.767 8.43333 19.5504 8.25C19.3337 8.06667 19.0754 7.9625 18.7754 7.9375C18.4754 7.9125 18.1837 8.01667 17.9004 8.25L7.40038 17.25ZM17.0004 19C17.5504 19 18.0212 18.8042 18.4129 18.4125C18.8045 18.0208 19.0004 17.55 19.0004 17C19.0004 16.45 18.8045 15.9792 18.4129 15.5875C18.0212 15.1958 17.5504 15 17.0004 15C16.4504 15 15.9795 15.1958 15.5879 15.5875C15.1962 15.9792 15.0004 16.45 15.0004 17C15.0004 17.55 15.1962 18.0208 15.5879 18.4125C15.9795 18.8042 16.4504 19 17.0004 19ZM7.00038 9C7.55038 9 8.02121 8.80417 8.41288 8.4125C8.80454 8.02083 9.00038 7.55 9.00038 7C9.00038 6.45 8.80454 5.97917 8.41288 5.5875C8.02121 5.19583 7.55038 5 7.00038 5C6.45038 5 5.97954 5.19583 5.58788 5.5875C5.19621 5.97917 5.00038 6.45 5.00038 7C5.00038 7.55 5.19621 8.02083 5.58788 8.4125C5.97954 8.80417 6.45038 9 7.00038 9Z"
        />
    </g>
</svg>