<svg width="20" height="21" viewBox="0 0 20 21" fill="none" xmlns="http://www.w3.org/2000/svg">
<path d="M10 0.5C8.02219 0.5 6.08879 1.08649 4.4443 2.1853C2.79981 3.28412 1.51809 4.8459 0.761209 6.67316C0.00433286 8.50043 -0.1937 10.5111 0.192152 12.4509C0.578004 14.3907 1.53041 16.1725 2.92894 17.5711C4.32746 18.9696 6.10929 19.922 8.0491 20.3078C9.98891 20.6937 11.9996 20.4957 13.8268 19.7388C15.6541 18.9819 17.2159 17.7002 18.3147 16.0557C19.4135 14.4112 20 12.4778 20 10.5C19.997 7.84875 18.9425 5.30695 17.0678 3.43223C15.1931 1.55751 12.6512 0.502987 10 0.5ZM10 19.0714C7.72672 19.0714 5.54654 18.1684 3.93909 16.5609C2.33163 14.9535 1.42858 12.7733 1.42858 10.5C1.42858 8.22671 2.33163 6.04654 3.93909 4.43908C5.54654 2.83163 7.72672 1.92857 10 1.92857V10.5L16.058 16.5581C15.2635 17.3554 14.3194 17.9879 13.2797 18.4192C12.2401 18.8505 11.1255 19.0721 10 19.0714Z" />
</svg>
