<svg width="119" height="24" viewBox="0 0 119 24" fill="none" xmlns="http://www.w3.org/2000/svg">
<g id="Group 1000003752">
<g id="Vector">
<path d="M102.042 18.8026H118.775V23.692H102.042V18.8026Z" fill="#FF4D4F"/>
<path d="M102.042 12.6908H118.775V17.5802H102.042V12.6908Z" fill="#007CB0"/>
<path d="M100.955 6.80823L116.998 3.64462L118.132 8.41398L102.089 11.5776L100.955 6.80823Z" fill="#FFA940"/>
</g>
<path id="Vector_2" d="M95.4258 20.2991C96.2379 20.2991 97.2124 20.1215 98.3494 19.7662V23.2227C97.1921 23.7404 95.7709 23.9993 94.0858 23.9993C92.2281 23.9993 90.8729 23.5323 90.0202 22.5984C89.1776 21.6543 88.7564 20.2433 88.7564 18.3653V10.1579H86.5332V8.19362L89.0913 6.64046L90.4313 3.04688H93.4006V6.67091H98.1667V10.1579H93.4006V18.3653C93.4006 19.0251 93.5833 19.5124 93.9488 19.8271C94.3244 20.1418 94.8167 20.2991 95.4258 20.2991Z" fill="#030A13"/>
<path id="Vector_3" d="M80.707 2.26883C80.707 0.756277 81.5496 0 83.2347 0C84.9198 0 85.7624 0.756277 85.7624 2.26883C85.7624 2.98958 85.5492 3.55298 85.1229 3.95903C84.7067 4.35494 84.0773 4.55289 83.2347 4.55289C81.5496 4.55289 80.707 3.79153 80.707 2.26883ZM85.5492 23.6933H80.905V6.66945H85.5492V23.6933Z" fill="#030A13"/>
<path id="Vector_4" d="M74.6512 23.6879L74.0269 21.5104H73.7832C73.2858 22.3022 72.5803 22.9164 71.6667 23.3529C70.7531 23.7793 69.7125 23.9924 68.5451 23.9924C66.5453 23.9924 65.0378 23.4595 64.0227 22.3936C63.0076 21.3176 62.5 19.7745 62.5 17.7646V6.66406H67.1442V16.6073C67.1442 17.8356 67.3625 18.7594 67.799 19.3786C68.2355 19.9877 68.9309 20.2923 69.8851 20.2923C71.1845 20.2923 72.1235 19.8608 72.7021 18.998C73.2808 18.125 73.5701 16.6835 73.5701 14.6735V6.66406H78.2143V23.6879H74.6512Z" fill="#030A13"/>
<path id="Vector_5" d="M61.1071 17.5128C61.1071 19.5228 60.3813 21.1064 58.9296 22.2636C57.4881 23.4209 55.4781 23.9995 52.8997 23.9995C50.5243 23.9995 48.4229 23.5529 46.5957 22.6596V18.2742C48.0981 18.9442 49.367 19.4162 50.4025 19.6903C51.4481 19.9644 52.4023 20.1014 53.2651 20.1014C54.3006 20.1014 55.0924 19.9035 55.6406 19.5076C56.1989 19.1116 56.4781 18.5229 56.4781 17.7412C56.4781 17.3047 56.3562 16.919 56.1126 16.584C55.869 16.2388 55.5086 15.9089 55.0315 15.5942C54.5645 15.2795 53.6052 14.777 52.1536 14.0867C50.7933 13.4472 49.7731 12.833 49.0929 12.2443C48.4128 11.6555 47.8697 10.9703 47.4636 10.1886C47.0576 9.40695 46.8546 8.49332 46.8546 7.44773C46.8546 5.47837 47.5195 3.93028 48.8493 2.80348C50.1893 1.67668 52.0368 1.11328 54.392 1.11328C55.5492 1.11328 56.6506 1.25032 57.6962 1.52441C58.752 1.7985 59.8534 2.18425 61.0005 2.68167L59.4778 6.35139C58.2901 5.86412 57.3054 5.52405 56.5237 5.33117C55.7522 5.1383 54.9909 5.04186 54.2397 5.04186C53.3464 5.04186 52.6611 5.24996 52.184 5.66617C51.7069 6.08237 51.4684 6.62547 51.4684 7.29546C51.4684 7.71167 51.5648 8.07712 51.7577 8.39181C51.9505 8.69635 52.2551 8.99582 52.6713 9.29021C53.0977 9.57444 54.0976 10.0922 55.671 10.8434C57.7521 11.8382 59.1783 12.8381 59.9498 13.8431C60.7213 14.8379 61.1071 16.0612 61.1071 17.5128Z" fill="#030A13"/>
<path id="Vector_6" d="M46.1547 18.6398C46.1547 20.3858 45.5456 21.7157 44.3275 22.6293C43.1195 23.5429 41.3074 23.9997 38.8914 23.9997C37.653 23.9997 36.5972 23.9134 35.7242 23.7408C34.8512 23.5784 34.034 23.3348 33.2726 23.01V19.1727C34.1355 19.5788 35.105 19.9189 36.181 20.1929C37.2672 20.467 38.2214 20.6041 39.0437 20.6041C40.7288 20.6041 41.5714 20.1168 41.5714 19.1423C41.5714 18.7768 41.4597 18.4824 41.2364 18.2591C41.0131 18.0256 40.6273 17.7668 40.0791 17.4825C39.531 17.1881 38.8001 16.8481 37.8864 16.4623C36.5769 15.9141 35.6125 15.4066 34.9933 14.9396C34.3842 14.4727 33.9376 13.9397 33.6533 13.3408C33.3792 12.7317 33.2422 11.9856 33.2422 11.1024C33.2422 9.58985 33.8259 8.42244 34.9933 7.60018C36.1709 6.76777 37.8357 6.35156 39.9878 6.35156C42.0383 6.35156 44.0331 6.79822 45.972 7.69154L44.5711 11.0415C43.7184 10.676 42.9215 10.3766 42.1805 10.1431C41.4394 9.90962 40.6831 9.79287 39.9116 9.79287C38.5412 9.79287 37.856 10.1634 37.856 10.9044C37.856 11.3207 38.0742 11.681 38.5107 11.9856C38.9574 12.2901 39.9269 12.7418 41.4191 13.3408C42.7489 13.8788 43.7235 14.3813 44.3427 14.8483C44.9619 15.3152 45.4187 15.8532 45.7131 16.4623C46.0075 17.0714 46.1547 17.7972 46.1547 18.6398Z" fill="#030A13"/>
<path id="Vector_7" d="M25.0875 9.65583C24.1028 9.65583 23.3313 9.97052 22.773 10.5999C22.2147 11.2191 21.8949 12.1023 21.8137 13.2494H28.3309C28.3106 12.1023 28.0111 11.2191 27.4325 10.5999C26.8539 9.97052 26.0722 9.65583 25.0875 9.65583ZM25.7423 23.9997C23.0014 23.9997 20.8595 23.2434 19.3165 21.7309C17.7735 20.2183 17.002 18.0764 17.002 15.3051C17.002 12.4525 17.7125 10.2497 19.1337 8.69653C20.5651 7.13322 22.5395 6.35156 25.0571 6.35156C27.4629 6.35156 29.3359 7.03678 30.6758 8.40721C32.0158 9.77765 32.6858 11.6709 32.6858 14.0869V16.3405H21.7071C21.7579 17.6602 22.1487 18.6905 22.8796 19.4316C23.6105 20.1726 24.6358 20.5432 25.9555 20.5432C26.9807 20.5432 27.9502 20.4366 28.8638 20.2234C29.7774 20.0102 30.7317 19.6702 31.7265 19.2032V22.7968C30.9144 23.2028 30.0465 23.5023 29.1227 23.6952C28.1989 23.8982 27.0721 23.9997 25.7423 23.9997Z" fill="#030A13"/>
<path id="Vector_8" d="M4.72038 11.3081H6.24309C7.73534 11.3081 8.83676 11.0594 9.54736 10.562C10.258 10.0646 10.6133 9.28294 10.6133 8.21704C10.6133 7.1613 10.2478 6.4101 9.5169 5.96344C8.79616 5.51678 7.67443 5.29345 6.15173 5.29345H4.72038V11.3081ZM4.72038 15.1453V23.6877H0V1.42578H6.48672C9.51183 1.42578 11.7502 1.97903 13.2018 3.08553C14.6535 4.18188 15.3793 5.85178 15.3793 8.09523C15.3793 9.40475 15.0189 10.5722 14.2982 11.5974C13.5774 12.6126 12.5572 13.4095 11.2376 13.9881C14.5875 18.9927 16.7701 22.2259 17.7852 23.6877H12.5471L7.23285 15.1453H4.72038Z" fill="#030A13"/>
</g>
</svg>
