<svg width="147" height="122" viewBox="0 0 147 122" fill="none" xmlns="http://www.w3.org/2000/svg">
<g clip-path="url(#clip0_3495_129864)">
<path d="M128.212 27.9342L61.4887 31.8656C61.2177 31.8818 60.9622 31.9964 60.7654 32.1842C60.5477 32.3937 60.4218 32.6809 60.4153 32.983C60.4089 33.285 60.5224 33.5774 60.731 33.7959L78.6418 52.5041C78.9115 52.7855 79.3063 52.9122 79.6887 52.8317L90.636 50.6929L83.3163 59.1006C83.0589 59.3977 82.9677 59.7967 83.0827 60.1675L90.3345 85.0708C90.411 85.3318 90.575 85.5588 90.7981 85.7022C91.3215 86.0516 92.0296 85.9067 92.3852 85.3798L129.237 29.7096C129.376 29.5061 129.437 29.256 129.429 29.0132C129.385 28.3791 128.844 27.8995 128.212 27.9342ZM92.8553 75.3511L88.6239 60.8365L103.267 44.0273C103.381 43.8957 103.434 43.7165 103.398 43.5395C103.334 43.2297 103.037 43.0299 102.724 43.0871L80.8489 47.3698L70.4355 36.4904L120.529 33.5412L92.8553 75.3511Z" />
</g>
<rect x="0.808594" y="66.1836" width="13" height="4" transform="rotate(-30 0.808594 66.1836)" />
<rect x="15.5312" y="57.6836" width="43" height="4" transform="rotate(-30 15.5312 57.6836)" />
<rect x="24.3984" y="71.0391" width="13" height="4" transform="rotate(-30 24.3984 71.0391)"/>
<rect x="39.1211" y="62.5391" width="31" height="4" transform="rotate(-30 39.1211 62.5391)" />
<rect x="35.3711" y="112.047" width="13" height="4" transform="rotate(-30 35.3711 112.047)"/>
<rect x="50.0938" y="103.547" width="31" height="4" transform="rotate(-30 50.0938 103.547)" />
<rect x="39.4609" y="83.1289" width="30" height="4" transform="rotate(-30 39.4609 83.1289)" />
<defs>
<clipPath id="clip0_3495_129864">
<rect width="64" height="64" fill="white" transform="translate(59.0156 32) rotate(-30)"/>
</clipPath>
</defs>
</svg>
