<svg width="16" height="15" viewBox="0 0 16 15" fill="none" xmlns="http://www.w3.org/2000/svg">
<path d="M8 15C3.85775 15 0.5 11.6423 0.5 7.5C0.5 3.35775 3.85775 0 8 0C12.1423 0 15.5 3.35775 15.5 7.5C15.5 11.6423 12.1423 15 8 15ZM8 13.5C9.5913 13.5 11.1174 12.8679 12.2426 11.7426C13.3679 10.6174 14 9.0913 14 7.5C14 5.9087 13.3679 4.38258 12.2426 3.25736C11.1174 2.13214 9.5913 1.5 8 1.5C6.4087 1.5 4.88258 2.13214 3.75736 3.25736C2.63214 4.38258 2 5.9087 2 7.5C2 9.0913 2.63214 10.6174 3.75736 11.7426C4.88258 12.8679 6.4087 13.5 8 13.5ZM4.25 9.99C5.86629 9.87387 7.38627 9.17794 8.53025 8.03025C9.67794 6.88627 10.3739 5.36629 10.49 3.75C11.0442 4.11921 11.5095 4.6068 11.8524 5.17762C12.1953 5.74843 12.4073 6.38824 12.473 7.05088C12.5387 7.71353 12.4566 8.38251 12.2324 9.00956C12.0083 9.63661 11.6478 10.2061 11.177 10.677C10.7061 11.1478 10.1366 11.5083 9.50956 11.7324C8.88251 11.9566 8.21353 12.0387 7.55088 11.973C6.88824 11.9073 6.24843 11.6953 5.67762 11.3524C5.1068 11.0095 4.61921 10.5442 4.25 9.99Z"/>
</svg>
