<svg width="24" height="24" viewBox="0 0 24 24" fill="none" xmlns="http://www.w3.org/2000/svg">
<path d="M7.71662 10.1232C9.32833 10.1232 10.6349 8.81662 10.6349 7.2049C10.6349 5.59318 9.32833 4.28662 7.71662 4.28662C6.1049 4.28662 4.79834 5.59318 4.79834 7.2049C4.79834 8.81662 6.1049 10.1232 7.71662 10.1232Z" stroke="black" stroke-width="1.92" stroke-miterlimit="10" stroke-linecap="round"/>
<path d="M6.31226 21.3393C6.37062 19.919 6.95428 18.6155 7.86867 17.6817C8.95816 16.5338 10.5146 15.8335 12.2072 15.9113C13.8998 15.9891 15.3978 16.8062 16.39 18.0124C17.2266 19.0436 17.6935 20.386 17.6352 21.8062" stroke="black" stroke-width="1.92" stroke-miterlimit="10" stroke-linecap="round"/>
<path d="M15 21.9912C15 21.5972 14.9224 21.2071 14.7716 20.8432C14.6209 20.4792 14.3999 20.1485 14.1213 19.8699C13.8427 19.5913 13.512 19.3703 13.1481 19.2196C12.7841 19.0688 12.394 18.9912 12 18.9912C11.606 18.9912 11.2159 19.0688 10.8519 19.2196C10.488 19.3703 10.1573 19.5913 9.87868 19.8699C9.6001 20.1485 9.37913 20.4792 9.22836 20.8432C9.0776 21.2071 9 21.5972 9 21.9912L15 21.9912Z" fill="black"/>
<path d="M10.6157 16.0645C9.1955 16.4341 8.70912 16.7065 7.3278 18.2434L4.93481 8.08783C5.42119 9.62479 7.05543 10.4808 8.59239 10.0139C10.1293 9.54697 10.9854 7.89328 10.5184 6.35632L14.5846 16.3952C12.7558 15.8894 12.1527 15.6753 10.6352 16.0645H10.6157Z" stroke="black" stroke-width="1.92" stroke-linecap="round" stroke-linejoin="round"/>
<path d="M16.5422 5.40587L10.8096 6.50256" stroke="black" stroke-width="1.92" stroke-miterlimit="10" stroke-linecap="round"/>
<path d="M19.9549 7.73185C18.3689 8.03527 16.8437 6.99992 16.5403 5.4139C16.2369 3.82789 17.2722 2.30268 18.8582 1.99926" stroke="black" stroke-width="1.92" stroke-miterlimit="10" stroke-linecap="round"/>
<path d="M19.9532 21.9991H4" stroke="black" stroke-width="1.92" stroke-linecap="round" stroke-linejoin="round"/>
</svg>
